<?xml version="1.0" encoding="UTF-8"?>
<svg id="Layer_1" xmlns="http://www.w3.org/2000/svg" version="1.1" viewBox="0 0 986.58 1320.12">
  <!-- Generator: Adobe Illustrator 30.5.1, SVG Export Plug-In . SVG Version: 2.1.4 Build 3)  -->
  <defs>
    <style>
      .st0 {
        fill: #ebdfd2;
      }

      .st1 {
        fill: #bf7474;
      }

      .st2 {
        fill: #a25959;
      }
    </style>
  </defs>
  <rect class="st1" y="5.07" width="919.03" height="1315.06" transform="translate(919.0319 1325.1932) rotate(-180)"/>
  <path class="st0" d="M903.55,618.97c4.15-189.57,7.96-379.15,11.44-568.73.24-12.98-.12-27.17-12.34-37.16C886.98.27,858.84-.34,834.32.09c-150.5,2.67-301,5.34-451.5,8.01-7.59.13-15.77.41-21.69,3.64-7.5,4.09-8.68,12.02-4.48,17.9,4.2,5.88,12.65,9.9,21.56,12.38,42.57,11.84,99.79-5.53,132.93,16.12,16.1,10.52,19.86,26.73,28.51,40.72,12.92,20.89,38.63,37.98,69.68,46.3,26.7,7.16,59.26,9.14,76.42,24.76,21.72,19.77,5.08,48.45,15.43,72.09,14.47,33.08,74.55,45.51,104.45,73.43,37.46,34.97,19.11,83.64,30.3,126.2,5.58,21.22,18.78,41.24,24.61,62.43,5.62,20.4,4.28,41.38,8,61.97,3.72,20.59,13.56,41.89,35,52.93Z"/>
  <path class="st2" d="M340.7,30.57c10.48,16.95,43.71,19.96,70.52,17.99,26.81-1.97,56.87-5.79,78.38,5.31,17.98,9.28,23.27,25.74,32.34,39.81,16.97,26.35,51.47,47.16,91.89,55.43,23.44,4.79,51.75,7.02,64.1,21.43,9.55,11.14,5.24,25.07,4.81,37.97-.78,23.29,12.83,46.66,36.83,63.24,21.79,15.04,51.44,24.6,69.83,41.62,17.55,16.25,22.48,37.08,26.9,57.03,16.64,75.14,33.27,150.28,49.91,225.42,1.54,6.93,3.31,14.24,9.86,19.65,6.55,5.4,19.62,7.78,27.19,3.03,6.22-3.91,6.14-10.5,5.61-16.26-4.19-44.69-8.37-89.39-12.56-134.08-3.12-33.29-6.28-66.8-18.24-99.14-11.95-32.34-33.34-63.81-68.3-87.13-17.13-11.43-37.61-21.05-49.71-35.16-16.53-19.3-14.37-43.29-23.38-64.78-12.42-29.61-47.85-54.22-91.03-63.23-32.21-6.72-70.81-6.35-93.13-23.56-15.1-11.64-18.12-28.29-28.71-42.05-15.51-20.16-46.73-32.96-79.1-38.54-32.37-5.58-66.25-4.87-104.02,16.01Z"/>
  <path class="st2" d="M407.84,13.78c-14.21,4.77-28.43,9.55-42.64,14.32-7.18,2.41-14.46,4.84-22.11,5.58-2.94-.77-5.09-3.34-5.01-5.97.06-2.16,1.46-4.22,1.2-6.37-.15-1.28-.88-2.46-1.2-3.72s-.09-2.8,1.19-3.48c.67-.36,1.49-.4,2.28-.44,14.13-.68,28.29-1.37,42.44-.92,11.01.35,22.04,1.39,33.01.58,0-.44,0-.87,0-1.31"/>
  <text/>
  <text/>
</svg>