<?xml version="1.0" encoding="UTF-8"?>
<svg id="Layer_1" xmlns="http://www.w3.org/2000/svg" version="1.1" viewBox="0 0 924.17 539.33">
  <!-- Generator: Adobe Illustrator 30.5.1, SVG Export Plug-In . SVG Version: 2.1.4 Build 3)  -->
  <defs>
    <style>
      .st0 {
        fill: #e8ddd2;
      }

      .st1, .st2 {
        fill: #a15959;
      }

      .st2 {
        font-family: ErasITC-Bold, 'Eras Bold ITC';
        font-size: 59.65px;
        font-weight: 700;
      }
    </style>
  </defs>
  <rect class="st0" x="0" y="0" width="583.77" height="177.93" rx="59.31" ry="59.31"/>
  <text class="st2" transform="translate(175.48 91.29) scale(.92 1)"><tspan x="0" y="0">Tell Us</tspan></text>
  <path class="st1" d="M534.43.21c-19.77,2.72-42.52,7.64-51.99,27.59-5.14,10.84-5.01,23.79-7.11,35.88-4.2,24.15-17.86,45.53-35.71,59.42-17.84,13.89-39.58,20.59-61.18,21.17-26.43.72-52.56-7.3-79-6.93-45.21.63-88.86,25.73-133.89,21.1-17.66-1.81-34.73-8.17-52.29-10.97-17.56-2.8-36.71-1.58-51.12,10.19-6.22,5.08-11.62,14.08-8.56,22.07,3.08,8.05,12.35,9.59,20.06,9.96,142.16,6.71,284.61,5.65,426.69-3.16,29.29-1.82,61.63-5.54,81.54-30.08,12.82-15.8,18.14-38.29,16.84-59.75-1.3-21.46-8.72-41.96-18.65-60.26-11.45-21.11-28.74-38.57-45.64-36.24Z"/>
</svg>