<?xml version="1.0" encoding="UTF-8"?>
<svg xmlns="http://www.w3.org/2000/svg" version="1.1" viewBox="0 0 629.37 173.95">
  <!-- Generator: Adobe Illustrator 30.5.1, SVG Export Plug-In . SVG Version: 2.1.4 Build 3)  -->
  <defs>
    <style>
      .st0 {
        fill: #5f5c55;
      }

      .st1 {
        stroke: #232525;
      }

      .st1, .st2, .st3 {
        fill: none;
        stroke-miterlimit: 10;
      }

      .st4 {
        fill: #e8ddd2;
      }

      .st5 {
        font-family: ErasITC-Bold, 'Eras Bold ITC';
        font-size: 34.91px;
        font-weight: 700;
      }

      .st5, .st6 {
        isolation: isolate;
      }

      .st5, .st7 {
        fill: #a15959;
      }

      .st2 {
        stroke: #ddc5b8;
      }

      .st8 {
        fill: #232525;
      }

      .st9 {
        fill: #a35959;
      }

      .st10 {
        fill: #efe0d1;
      }

      .st3 {
        stroke: #d5c9c1;
      }

      .st11 {
        fill: #6a6661;
      }
    </style>
  </defs>
  <g id="Layer_3">
    <path class="st10" d="M56.23,133.21c4.49-.87,8.66-3.04,11.42-5.96,2.76-2.91,4.08-6.54,3.63-9.93-.22-1.66-.85-3.24-1.06-4.9s.05-3.48,1.4-4.9c1.35-1.42,4.03-2.25,5.9-1.46,1.48.63,2.04,2.01,2.35,3.31.59,2.46.68,5,.77,7.53.12,3.56.21,7.25-1.74,10.62-1.49,2.58-4.09,4.78-7.02,6.57-2.93,1.79-6.2,3.2-9.45,4.61"/>
  </g>
  <g id="Layer_2">
    <ellipse class="st0" cx="50.25" cy="158.51" rx="3.78" ry="9.57" transform="translate(-52.23 27.56) rotate(-20.46)"/>
    <ellipse class="st0" cx="40.41" cy="162.18" rx="3.78" ry="9.57" transform="translate(-54.13 24.35) rotate(-20.46)"/>
  </g>
  <g id="Layer_1">
    <rect class="st4" x="66.99" width="532.88" height="119.44" rx="28.94" ry="28.94"/>
    <path class="st7" d="M568.68,2.14c-18.62,1.8-40.04,5.05-48.95,18.24-4.84,7.17-4.72,15.72-6.7,23.72-3.95,15.96-16.82,30.09-33.62,39.28-16.8,9.18-37.26,13.61-57.61,14-24.88.47-49.49-4.83-74.38-4.59-42.57.42-83.66,17.01-126.06,13.95-16.63-1.2-32.69-5.4-49.23-7.25s-34.57-1.05-48.13,6.74c-5.85,3.36-10.94,9.31-8.06,14.59,2.9,5.32,11.63,6.34,18.88,6.58,133.86,4.43,267.98,3.73,401.76-2.09,27.58-1.2,58.03-3.66,76.77-19.88,12.07-10.44,17.09-25.31,15.86-39.49s-8.21-27.74-17.56-39.83c-10.78-13.95-27.06-25.49-42.97-23.95h.01Z"/>
    <path class="st10" d="M59.94,133.03c3.1-2.13,7.55-2.36,10.45-.94,2.91,1.42,4.37,4.23,4.45,7.17.16,5.52-4.51,11.66-11.09,14.59-4.19,1.86-8.81,2.43-13.18,3.82-5.97,1.89-11.32,5.24-16.65,8.39s-10.99,6.24-17.08,7.43c-6.09,1.2-12.74.06-15.28-3.94-1.32-2.08-1.4-4.68-1.08-7.23.26-2.04.79-4.14,2.03-6.09,1.24-1.95,3.28-3.74,5.76-4.58-2.98-3.64-3.48-8.77-1.12-13.47,2.36-4.7,7.59-8.82,13.49-10.44,5.9-1.62,12.26-.61,15.78,2.67,2.28-3.48,6.8-6.18,11.37-6.81s8.99.85,11.12,3.72c2.14,2.87,1.89,7.01-.62,10.41"/>
    <path class="st10" d="M67.17,130.45c.08-.37.56-.72,1.01-.72l1.76,4.21"/>
    <ellipse class="st8" cx="46.47" cy="144.09" rx="1.51" ry="1.16" transform="translate(-47.43 25.33) rotate(-20.46)"/>
    <ellipse class="st8" cx="31.16" cy="151.11" rx="1.51" ry="1.16" transform="translate(-50.85 20.42) rotate(-20.46)"/>
    <path class="st1" d="M37.44,152.53c1.19.59,2.95.51,4.36-.21,1.41-.71,2.4-2.03,2.46-3.26"/>
    <path class="st3" d="M9.98,163.68c1.36.55,3.07.64,4.72.24,1.53-.37,2.95-1.13,4.35-1.84s2.88-1.39,4.42-1.6,3.15.2,3.68,1.26c.42.85.08,1.93-.5,2.87-.91,1.5-2.39,2.81-4.08,3.84-1.69,1.03-3.58,1.77-5.49,2.34-1.75.52-3.56.91-5.3.87-1.74-.03-3.4-.51-4.4-1.53"/>
    <path class="st9" d="M61.53,131.58c-.2-4.88-4.67-8.89-10.42-9.31-5.75-.43-12.26,2.76-15.15,7.42-3.89-3.28-10.2-4.43-16.12-2.94-5.92,1.49-11.27,5.57-13.67,10.43-2.4,4.86-1.77,10.34,1.6,14.02-5.77,3.55-8.92,10.04-7.39,15.24.31,1.07,1.12,2.24,2.49,2.05,1.11-.15,1.94-1.17,2.14-2.11.2-.94-.03-1.84-.04-2.76-.02-2.18,1.3-4.51,3.43-6.06,1.82-1.32,4.17-2.09,5.7-3.65,1.97-2.01,1.99-4.67,2.96-7.06,1.65-4.1,6.55-7.49,11.52-7.96,2.85-.27,5.67.32,8.48-.42,3.5-.92,6.11-3.65,9.28-5.36,4.49-2.43,10.26-2.63,15.2-1.54h0Z"/>
    <path class="st9" d="M59.29,129.14c1.88.68,2.63,2.72,1.63,4.46-.5.87-1.35,1.65-1.58,2.55-.12.45-.06.89-.15,1.34s-.41.95-.94,1.14c-.62.22-1.25-.11-1.43-.58-.19-.46-.05-1.01.11-1.54s.33-1.06.21-1.55c-.22-.9-1.36-1.33-2.04-2.01-.96-.96-.98-2.4-.97-3.75"/>
    <path class="st9" d="M61.21,136.17"/>
    <path class="st9" d="M54.7,130.92c-.83-.1-1.75.44-2.26,1.08s-.69,1.38-.91,2.09c-.22.71-.5,1.46-1.12,2.03-.68.63-1.8,1.14-1.85,1.9-.04.5.42.97.07,1.42-.29.37-.96.42-1.35.21-.6-.33-.68-1.04-.65-1.68.02-.64.1-1.34-.33-1.82-.48-.55-1.5-.64-2.4-.41-.9.22-1.72.71-2.52,1.18-.82.48-1.73,1.09-1.8,1.85-.05.55.36.98.68,1.41.32.43.55,1.02.14,1.52-.37.46-1.11.64-1.49,1.08-.58.68-.12,1.71-.95,2.19-.46.26-1.05.14-1.37-.15s-.42-.7-.55-1.09c-.37-1.09-1-2.1-1.98-2.84s-2.32-1.18-3.78-1.1c-.87.05-1.79.28-2.59.1-1.09-.25-1.61-1.17-1.85-2.09-.25-.93-.3-1.94.05-2.93.36-.99,1.17-1.97,2.3-2.52.98-.47,2.1-.58,3.11-.48s1.94.39,2.85.69"/>
    <path class="st9" d="M27.65,139.12c-1.02-.02-2.05,1.02-1.77,1.78.23.64,1.17,1.01,1.08,1.72-.14,1.14-2.7,1.7-2.65,2.82.03.57.78,1.03.4,1.57-.36.51-1.32.34-1.59-.11-.27-.46-.16-1.05-.32-1.55-.32-.98-1.83-1.42-3.08-.92-1.25.51-1.98,1.86-1.48,2.77.24.45.73.8.79,1.31.11,1.03-1.57,2.01-1.53,3.05.02.52.47.9.61,1.4.14.49-.37,1.26-.97,1.15-.37-.07-.48-.42-.65-.68s-.67-.44-.94-.16c-.35.96-1.31,1.85-2.45,2.28-.61.23-1.36.42-1.59.92-.2.45.19.83.41,1.21.59,1,.08,2.33-.44,3.51-.67.06-.97-.56-.99-1.09-.02-.54.04-1.17-.44-1.47-.56-.35-1.56,0-2.06.55-.5.55-.62,1.23-.74,1.87-.2,1.17-.4,2.33-.6,3.5-.15.85-.32,1.75-1.01,2.48s-2.07,1.12-2.72.57c-.38-.32-.39-.84-.37-1.33.15-2.84,1.22-5.78,3.09-8.45,1.7-2.42,4.03-4.6,5.61-7.05,1.15-1.79,1.89-3.7,2.13-5.59.19-1.49.1-3.01.87-4.45.82-1.52,2.5-2.73,4.27-3.59,3.82-1.86,8.36-2.38,12.04-1.38"/>
    <path class="st10" d="M59.94,133.03c3.1-2.13,7.55-2.36,10.45-.94,2.91,1.42,4.37,4.23,4.45,7.17.16,5.52-4.51,11.66-11.09,14.59-4.19,1.86-8.81,2.43-13.18,3.82-5.97,1.89-11.32,5.24-16.65,8.39s-10.99,6.24-17.08,7.43c-6.09,1.2-12.74.06-15.28-3.94-1.32-2.08-1.4-4.68-1.08-7.23.26-2.04.79-4.14,2.03-6.09,1.24-1.95,3.28-3.74,5.76-4.58-2.98-3.64-3.48-8.77-1.12-13.47,2.36-4.7,7.59-8.82,13.49-10.44,5.9-1.62,12.26-.61,15.78,2.67,2.28-3.48,6.8-6.18,11.37-6.81s8.99.85,11.12,3.72c2.14,2.87,1.89,7.01-.62,10.41"/>
    <path class="st10" d="M67.17,130.45c.08-.37.56-.72,1.01-.72l1.76,4.21"/>
    <ellipse class="st8" cx="46.47" cy="144.09" rx="1.51" ry="1.16" transform="translate(-47.43 25.33) rotate(-20.46)"/>
    <ellipse class="st8" cx="31.16" cy="151.11" rx="1.51" ry="1.16" transform="translate(-50.85 20.42) rotate(-20.46)"/>
    <path class="st2" d="M9.98,163.68c1.36.55,3.07.64,4.72.24,1.53-.37,2.95-1.13,4.35-1.84s2.88-1.39,4.42-1.6,3.15.2,3.68,1.26c.42.85.08,1.93-.5,2.87-.91,1.5-2.39,2.81-4.08,3.84-1.69,1.03-3.58,1.77-5.49,2.34-1.75.52-3.56.91-5.3.87-1.74-.03-3.4-.51-4.4-1.53"/>
    <path class="st9" d="M61.53,131.58c-.2-4.88-4.67-8.89-10.42-9.31-5.75-.43-12.26,2.76-15.15,7.42-3.89-3.28-10.2-4.43-16.12-2.94-5.92,1.49-11.27,5.57-13.67,10.43-2.4,4.86-1.77,10.34,1.6,14.02-5.77,3.55-8.92,10.04-7.39,15.24.31,1.07,1.12,2.24,2.49,2.05,1.11-.15,1.94-1.17,2.14-2.11.2-.94-.03-1.84-.04-2.76-.02-2.18,1.3-4.51,3.43-6.06,1.82-1.32,4.17-2.09,5.7-3.65,1.97-2.01,1.99-4.67,2.96-7.06,1.65-4.1,6.55-7.49,11.52-7.96,2.85-.27,5.67.32,8.48-.42,3.5-.92,6.11-3.65,9.28-5.36,4.49-2.43,10.26-2.63,15.2-1.54h0Z"/>
    <path class="st9" d="M59.29,129.14c1.88.68,2.63,2.72,1.63,4.46-.5.87-1.35,1.65-1.58,2.55-.12.45-.06.89-.15,1.34s-.41.95-.94,1.14c-.62.22-1.25-.11-1.43-.58-.19-.46-.05-1.01.11-1.54s.33-1.06.21-1.55c-.22-.9-1.36-1.33-2.04-2.01-.96-.96-.98-2.4-.97-3.75"/>
    <path class="st9" d="M61.21,136.17"/>
    <path class="st9" d="M54.7,130.92c-.83-.1-1.75.44-2.26,1.08s-.69,1.38-.91,2.09c-.22.71-.5,1.46-1.12,2.03-.68.63-1.8,1.14-1.85,1.9-.04.5.42.97.07,1.42-.29.37-.96.42-1.35.21-.6-.33-.68-1.04-.65-1.68.02-.64.1-1.34-.33-1.82-.48-.55-1.5-.64-2.4-.41-.9.22-1.72.71-2.52,1.18-.82.48-1.73,1.09-1.8,1.85-.05.55.36.98.68,1.41.32.43.55,1.02.14,1.52-.37.46-1.11.64-1.49,1.08-.58.68-.12,1.71-.95,2.19-.46.26-1.05.14-1.37-.15s-.42-.7-.55-1.09c-.37-1.09-1-2.1-1.98-2.84s-2.32-1.18-3.78-1.1c-.87.05-1.79.28-2.59.1-1.09-.25-1.61-1.17-1.85-2.09-.25-.93-.3-1.94.05-2.93.36-.99,1.17-1.97,2.3-2.52.98-.47,2.1-.58,3.11-.48s1.94.39,2.85.69"/>
    <path class="st9" d="M27.65,139.12c-1.02-.02-2.05,1.02-1.77,1.78.23.64,1.17,1.01,1.08,1.72-.14,1.14-2.7,1.7-2.65,2.82.03.57.78,1.03.4,1.57-.36.51-1.32.34-1.59-.11-.27-.46-.16-1.05-.32-1.55-.32-.98-1.83-1.42-3.08-.92-1.25.51-1.98,1.86-1.48,2.77.24.45.73.8.79,1.31.11,1.03-1.57,2.01-1.53,3.05.02.52.47.9.61,1.4.14.49-.37,1.26-.97,1.15-.37-.07-.48-.42-.65-.68s-.67-.44-.94-.16c-.35.96-1.31,1.85-2.45,2.28-.61.23-1.36.42-1.59.92-.2.45.19.83.41,1.21.59,1,.08,2.33-.44,3.51-.67.06-.97-.56-.99-1.09-.02-.54.04-1.17-.44-1.47-.56-.35-1.56,0-2.06.55-.5.55-.62,1.23-.74,1.87-.2,1.17-.4,2.33-.6,3.5-.15.85-.32,1.75-1.01,2.48s-2.07,1.12-2.72.57c-.38-.32-.39-.84-.37-1.33.15-2.84,1.22-5.78,3.09-8.45,1.7-2.42,4.03-4.6,5.61-7.05,1.15-1.79,1.89-3.7,2.13-5.59.19-1.49.1-3.01.87-4.45.82-1.52,2.5-2.73,4.27-3.59,3.82-1.86,8.36-2.38,12.04-1.38"/>
    <path class="st11" d="M42.9,164.97c2.02-2.49,5.06-3.81,6.81-2.97s1.52,3.55-.5,6.03-5.06,3.81-6.81,2.97-1.52-3.55.5-6.03Z"/>
    <path class="st11" d="M52.74,161.3c2.02-2.49,5.06-3.81,6.81-2.97s1.52,3.55-.5,6.03-5.06,3.81-6.81,2.97-1.52-3.55.5-6.03Z"/>
  </g>
  <g id="Layer_6">
    <g class="st6">
      <text class="st5" transform="translate(184.35 41.49) scale(1.03 1)"><tspan x="0" y="0">Honey Pistachio</tspan><tspan x="0" y="41.89" xml:space="preserve">           Cake</tspan></text>
      <text/>
    </g>
  </g>
  <g id="Layer_4">
    <path class="st9" d="M36.96,153.36s-.15,7.73,3.63,0"/>
  </g>
  <g id="Layer_5">
    <path class="st1" d="M36.54,152.96c1.19.59,2.95.51,4.36-.21,1.41-.71,2.4-2.03,2.46-3.26"/>
  </g>
</svg>