<?xml version="1.0" encoding="UTF-8"?>
<svg id="Layer_1" xmlns="http://www.w3.org/2000/svg" version="1.1" viewBox="0 0 828.79 307.56">
  <!-- Generator: Adobe Illustrator 30.5.1, SVG Export Plug-In . SVG Version: 2.1.4 Build 3)  -->
  <defs>
    <style>
      .st0 {
        fill: #efa74c;
      }

      .st1 {
        fill: #e8ddd2;
      }

      .st2 {
        fill: #efede4;
      }

      .st3 {
        fill: #231f20;
      }

      .st4 {
        fill: #e76d44;
      }

      .st5 {
        fill: #ebdfd2;
      }

      .st6 {
        fill: #a35959;
      }

      .st7 {
        fill: #a15959;
      }

      .st8 {
        fill: #ec8561;
      }

      .st9 {
        fill: #efe0d1;
      }

      .st10 {
        stroke: #232525;
      }

      .st10, .st11 {
        fill: none;
        stroke-miterlimit: 10;
      }

      .st12 {
        fill: #efebe3;
      }

      .st13 {
        fill: #232525;
      }

      .st14 {
        fill: #f1d19c;
      }

      .st15 {
        fill: #5f5c55;
      }

      .st11 {
        stroke: #d5c9c1;
      }

      .st16 {
        fill: #6a6661;
      }

      .st17 {
        fill: #a25959;
      }

      .st18 {
        fill: #ecd5ae;
      }

      .st19 {
        fill: #d5c9c1;
      }

      .st20 {
        fill: #efa74d;
      }

      .st21 {
        fill: #eed5ae;
      }

      .st22 {
        fill: #e76c49;
      }
    </style>
  </defs>
  <g>
    <line class="st7" x1="393.72" y1="183.54" x2="417.35" y2="167.32"/>
    <path class="st9" d="M387.33,98.29c5.68-2.07,12.27.97,15.73,6.33,3.46,5.36,4.07,12.51,2.59,18.88-2.76,11.93-12.9,21.34-24.08,22.33-7.12.64-14.15-1.82-21.28-2.34-9.73-.71-19.33,2.17-28.81,4.65-9.48,2.48-19.39,4.57-28.91,2.28-9.52-2.29-18.59-10.04-20.12-20.61-.79-5.5.5-11.12,2.35-16.31,1.49-4.16,3.39-8.23,6.26-11.4,2.87-3.17,6.81-5.38,10.88-5.2-2.36-10.15-.31-21.51,5.68-29.67,5.99-8.16,15.85-12.8,25.32-11.57,9.48,1.24,18.19,8.47,21.54,18.28,5.21-5.61,13.27-7.79,20.26-5.49,6.99,2.3,12.63,8.99,14.18,16.82,1.55,7.83-1.06,16.48-6.56,21.76"/>
    <path class="st1" d="M57.44,182.34c-7.1-1.45-14.11-4.21-19.68-9.16-5.57-4.95-9.54-12.3-9.6-20.07-.06-7.77,4.33-15.68,11.14-18.25,6.54-2.47,14.03.22,19.25,5.12,5.22,4.9,8.56,11.68,11.41,18.48,11.66,27.86,16.83,58.25,22.88,88.1,1.04,5.13,2.29,10.59,5.92,14.1,4.44,4.3,11.06,4.39,17.02,4,5.65-.37,11.3-.98,16.91-1.8,3.09-.45,6.64-1.34,7.95-4.38,1.71-3.98-1.62-8.18-4.4-11.38-10.81-12.5-16.7-28.95-21.37-45.26-4.67-16.31-8.46-33.11-16.02-48.11-7.56-15.01-19.69-28.36-35.15-32.24-9.42-2.36-19.5-1-28.41,3.05-8.92,4.04-16.71,10.67-23.81,19.58-7.65,13.84-7.41,32.29.76,46.55.98,1.16,1.97,2.31,3.5,3.74,2,1.5,4.4,2.38,7.38,2.56,11.69.5,23.49-4.66,34.32-14.61Z"/>
    <path class="st1" d="M34.63,187.64c-4.31,16.01-8.63,32.01-12.94,48.02-1.45,5.39-2.92,10.83-5.44,15.74-2.52,4.91-6.21,9.32-11.02,11.51-1.25.57-2.59,1-3.67,1.89s-1.86,2.42-1.44,3.81c.43,1.47,2.03,2.22,3.46,2.13,1.43-.09,2.75-.8,4.06-1.41,6.09-2.85,12.96-3.72,19.5-2.47,1.14.22,2.31.5,3.43.22s2.19-1.33,2.1-2.57c-.11-1.62-1.93-2.39-3.44-2.46-1.51-.07-3.2.13-4.35-.92-1.54-1.4-1.13-4.01-.58-6.1,5.95-22.64,11.89-45.28,10.34-67.38Z"/>
    <path class="st1" d="M89.53,190.76c-8.25,8.05-19.75,10.67-30.6,13.38-10.85,2.71-22.34,6.29-29.49,15.47,9.09-7.46,21.55-6.98,32.81-9.12,12.38-2.35,23.93-8.15,27.28-19.73Z"/>
    <path class="st1" d="M745.12,130.53c-7.1-1.45-14.11-4.21-19.68-9.16-5.57-4.95-9.54-12.3-9.6-20.07-.06-7.77,4.33-15.68,11.14-18.25,6.54-2.47,14.03.22,19.25,5.12,5.22,4.9,8.56,11.68,11.41,18.48,11.66,27.86,16.83,58.25,22.88,88.1,1.04,5.13,2.29,10.59,5.92,14.1,4.44,4.3,11.06,4.39,17.02,4,5.65-.37,11.3-.98,16.91-1.8,3.09-.45,6.64-1.34,7.95-4.38,1.71-3.98-1.62-8.18-4.4-11.38-10.81-12.5-16.7-28.95-21.37-45.26-4.67-16.31-8.46-33.11-16.02-48.11-7.56-15.01-19.69-28.36-35.15-32.24-9.42-2.36-19.5-1-28.41,3.05-8.92,4.04-16.71,10.67-23.81,19.58-7.65,13.84-7.41,32.29.76,46.55.98,1.16,1.97,2.31,3.5,3.74,2,1.5,4.4,2.38,7.38,2.56,11.69.5,23.49-4.66,34.32-14.61Z"/>
    <path class="st1" d="M722.31,135.82c-4.31,16.01-8.63,32.01-12.94,48.02-1.45,5.39-2.92,10.83-5.44,15.74-2.52,4.91-6.21,9.32-11.02,11.51-1.25.57-2.59,1-3.67,1.89-1.08.89-1.86,2.42-1.44,3.81.43,1.47,2.03,2.22,3.46,2.13,1.43-.09,2.75-.8,4.06-1.41,6.09-2.85,12.96-3.72,19.5-2.47,1.14.22,2.31.5,3.43.22,1.13-.28,2.19-1.33,2.1-2.57-.11-1.62-1.93-2.39-3.44-2.46-1.51-.07-3.2.13-4.35-.92-1.54-1.4-1.13-4.01-.58-6.1,5.95-22.64,11.89-45.28,10.34-67.38Z"/>
    <path class="st1" d="M777.21,138.95c-8.25,8.05-19.75,10.67-30.6,13.38-10.85,2.71-22.34,6.29-29.49,15.47,9.09-7.46,21.55-6.98,32.81-9.12,12.38-2.35,23.93-8.15,27.28-19.73Z"/>
    <path class="st1" d="M150.59,127.35c-8.01,2.04-16.96-1.68-21.8-8.84-4.84-7.16-5.41-17.3-1.61-25.16,2.3-4.76,6.53-8.88,11.51-9.07,4.36-.16,8.31,2.63,11.63,5.67,8.47,7.77,15,17.96,18.73,29.23,6.96,21.03,4.1,44.55,10.17,65.9.71,2.49,1.57,5.01,3.18,6.97,1.6,1.96,4.1,3.26,6.47,2.69,2.77-.67,4.53-3.56,5.68-6.35,2.37-5.78,3.35-12.1,3.92-18.38,2.06-22.68-1.1-45.89-9.11-66.99-4.32-11.37-10.42-22.57-20.1-29.07-11.78-7.91-27.59-7.34-39.71-.06-12.12,7.28-20.6,20.58-23.55,36.35-.15,1.84-.29,3.67-1.06,6.72,1.24,9.48,7.29,18.07,15.44,21.93,8.15,3.85,18.13,2.84,25.46-2.59,2.71-2,5.2-4.85,4.76-8.96Z"/>
    <path class="st1" d="M194.36,156.87c12.63-20.29,23.27-42.02,31.68-64.7,2.12-5.72,4.33-11.83,8.99-15.42,5.49-4.23,12.86-3.81,19.59-3.21,3.6.32,7.51.79,10.07,3.52,2.31,2.47,2.94,6.18,3.31,9.66,3.42,32.12-5.58,64.78-1.23,96.76.64,4.68,2.28,10.18,6.54,11.35,1.1.3,2.37.32,3.16,1.2,1.14,1.28.44,3.42-.57,4.82-4.64,6.46-13.28,7.24-20.87,7.48-4.68.14-9.36.29-14.04.43-2.81.09-5.74.15-8.27-1.18-2.53-1.32-4.46-4.49-3.56-7.35,1.62-5.18,9.68-4.21,12.19-8.96.83-1.56.86-3.44.88-5.24.23-23.91.45-47.82.68-71.73.03-3.13-.2-6.81-2.65-8.5-1.99-1.38-4.76-.74-6.62.85-1.86,1.59-3,3.93-4.04,6.22-5.72,12.59-10.01,25.9-15.9,38.4-5.89,12.5-13.62,24.44-24.54,32.1"/>
    <path class="st1" d="M140.35,135.71c1.61,13.34,1.17,26.95-1.3,40.14-.88,4.69-2.11,9.53-5.1,13.08-1.09,1.29-2.39,2.39-3.27,3.85-.88,1.46-1.24,3.48-.31,4.91,1.06,1.62,3.21,1.76,5.05,1.75,5-.04,10-.09,15-.13,1.33-.01,2.71-.04,3.89-.69s2.08-2.14,1.69-3.5c-.41-1.4-1.92-2.05-3.28-2.21-1.36-.16-2.8-.05-4.02-.72-2.65-1.45-2.68-5.44-2.41-8.62,1.44-17.14.51-34.5-5.96-47.85Z"/>
    <path class="st5" d="M338.93,198.22c4.41,8.33,12.98,13.91,21.88,14.26,8.9.35,17.83-4.55,22.79-12.51,3.45-5.53,4.95-12.87,2.47-18.97-3.45-8.46-13.12-11.82-21.7-11.72-18.6.23-36.19,12.78-45.2,30.28-9.01,17.5-9.81,39.19-3.84,58.14,3.65,11.58,10.08,22.68,19.95,28.76,11.86,7.32,27.3,6.12,39.19-1.16,11.88-7.28,20.38-19.93,25.17-33.71,4.79-13.78,6.14-28.67,6.2-43.38.06-14.27-1.58-29.87-11-39.92,22.02,12.61,36.6,38.98,36.37,65.81-.23,26.83-15.25,52.91-37.48,65.08-19.87,10.88-44.07,10.63-64.97,2.27-12.78-5.11-24.73-13.29-33.18-24.81-15.63-21.33-17-52.85-5.09-76.79,11.92-23.94,35.8-39.88,60.88-43.08,14.45-1.84,30.65.99,40.17,12.82,9.41,11.7,9.74,29.56,4.17,43.82-4.84,12.38-14.2,23.18-26.2,26.89-12,3.7-26.43-1.02-32.77-12.59-3.86-7.05-4.41-16.07,2.2-29.51Z"/>
    <path class="st1" d="M460.02,167.02c-12.28-8.39-18.83-24.92-17.34-40.48,1.49-15.56,10.38-29.77,22.47-38.47,12.09-8.7,27.06-12.15,41.58-11.21,8.02.52,16.39,2.55,22.29,8.42,5.94,5.91,8.49,14.83,9.33,23.49,1.27,13.04-1.45,27.63-11.01,35.76-5.01,4.26-11.74,6.66-14.92,12.62-2.76,5.16-2.05,11.58-1.12,17.45,1.83,11.48,4.21,22.86,7.13,34.08,1.96,7.53,4.39,15.37,9.82,20.58,5.91,5.66,14.34,7.15,22.24,6.95,11.25-.29,23.26-4.18,29.85-13.99,4.91-7.31,6.04-17.38,2.88-25.73-3.16-8.36-10.49-14.72-18.75-16.28-3.3-.62-7.01-.4-9.54,1.96-2.53,2.36-2.93,7.37-.1,9.31,1.88,1.29,4.3.83,6.52,1.06,5.34.54,9.89,5.86,9.94,11.63.05,5.77-4.4,11.18-9.73,11.83-5.74.7-11.12-3.62-14.24-8.85-3.12-5.24-4.57-11.38-6.77-17.13-4.82-12.6-13.46-23.48-24.27-30.58,9.15-1.69,18.37-3.39,27.04-6.97,8.67-3.58,16.85-9.19,22.21-17.34,8.36-12.71,8.58-30.49,2.1-44.41-6.48-13.92-18.95-24.01-32.71-28.87-13.76-4.86-28.7-4.82-42.94-2.02-18.68,3.68-36.77,12.26-50.7,26.14-13.94,13.88-23.45,33.29-24.44,53.69-.42,8.64.73,17.58,4.74,25.08,4.01,7.5,11.2,13.33,19.23,13.9,8.03.57,16.46-5.01,19.23-11.61Z"/>
    <path class="st1" d="M470.16,91.58c4.69,35.29,1.45,71.18-1.79,106.66-.26,2.84-.77,6.12-3.08,7.53-1.05.64-2.38.82-3.17,1.8-1.15,1.43-.38,3.83,1.09,4.87,1.47,1.04,3.33,1.11,5.09,1.14,7.32.14,14.63.27,21.95.41,3.43.06,7.33-.07,9.62-2.82,1.94-2.33,2.06-5.75,2.08-8.87.21-36.86.42-73.72.63-110.58.02-3.84-.35-8.45-3.49-10.29-2.81-1.65-6.26-.09-9.11,1.46-6.25,3.39-12.5,6.78-19.83,8.7Z"/>
    <path class="st5" d="M629.75,284.83c5.16-35.95,7.71-72.73,2.28-108.64-.54-3.57-1.36-7.48-4.08-9.59-3.06-2.38-7.58-1.44-10.45,1.19s-4.43,6.56-5.56,10.43c-.46,1.58-.9,3.26-2,4.42-1.09,1.17-3.08,1.56-4.13.34-.52-.61-.7-1.46-.81-2.28-1.15-9.1,4.93-17.95,12.68-21.82,7.75-3.87,16.72-3.66,25.16-2.23,5.66.96,11.63,2.66,15.4,7.3,4.26,5.23,4.65,12.79,4.83,19.74.69,26.43,1.38,52.87,2.07,79.3.11,4.24.13,8.83-2.17,12.27-3.32,4.98-9.96,5.51-15.64,4.97-5.68-.53-11.87-1.54-17.59,4.58Z"/>
    <ellipse class="st5" cx="637.02" cy="123.9" rx="14.78" ry="17.66"/>
    <path class="st1" d="M239.24,97.2c-13.01,31.43-27.26,62.28-42.67,92.43-.95,1.86-1.99,3.81-3.7,4.87-2.91,1.81-6.93.21-8.73-2.84-1.8-3.05-1.71-7.05-.58-10.45,1.13-3.4,3.17-6.36,5.15-9.27,18.1-26.67,33.7-55.29,50.54-74.74Z"/>
    <path class="st9" d="M399.27,98.53c.31-.73,1.2-1.08,1.86-.73l.27,10.41"/>
    <path class="st9" d="M383.43,98.52c7.1-.43,14.01-3.92,18.93-9.56,4.92-5.64,7.8-13.37,7.88-21.17.04-3.81-.55-7.61-.49-11.42.06-3.81.88-7.82,3.28-10.57,2.41-2.75,6.72-3.7,9.4-1.28,2.13,1.92,2.67,5.23,2.85,8.26.34,5.74-.12,11.5-.57,17.24-.63,8.06-1.36,16.43-5.13,23.37-2.89,5.32-7.4,9.4-12.32,12.44-4.92,3.04-10.27,5.12-15.59,7.19"/>
    <ellipse class="st19" cx="420.19" cy="42.56" rx="30.67" ry="8.63"/>
    <path class="st15" d="M365.19,141.51c-2.85-.69-5.69-1.39-8.54-2.08-.33-.08-.67-.16-1-.08-.59.14-.99.77-1.11,1.42-.18.96.15,1.97.69,2.75s1.28,1.36,2.03,1.89c1.95,1.38,4.03,2.5,6.12,3.58,1.16.6,2.45,1.2,3.67.8"/>
    <path class="st15" d="M343.39,144.29c-2.85-.69-5.69-1.39-8.54-2.08-.33-.08-.67-.16-1-.08-.59.14-.99.77-1.11,1.42-.18.96.15,1.97.69,2.75.54.78,1.28,1.36,2.03,1.89,1.95,1.38,4.03,2.5,6.12,3.58,1.16.6,2.45,1.2,3.67.8"/>
    <ellipse class="st13" cx="361.71" cy="111.19" rx="2.34" ry="2.64"/>
    <ellipse class="st13" cx="335.6" cy="113.97" rx="2.34" ry="2.64"/>
    <path class="st10" d="M343.97,122.02c1.42,2.22,4.02,3.44,6.46,3.04,2.44-.4,4.6-2.42,5.36-5"/>
    <path class="st11" d="M297.91,123.97c1.67,2.27,4.13,3.82,6.75,4.28,2.43.42,4.9-.07,7.33-.46,2.43-.39,4.96-.68,7.31.11,2.35.8,4.48,2.95,4.67,5.64.15,2.15-.93,4.19-2.28,5.75-2.14,2.47-5.01,4.1-8.02,4.95-3.01.84-6.16.93-9.26.63-2.83-.28-5.68-.9-8.19-2.36-2.51-1.45-4.68-3.82-5.57-6.78"/>
    <path class="st0" d="M444.47,33.2c-13.38,2.38-26.84,4.22-40.34,5.52-1.57.15-3.23.33-4.51,1.35-1.27,1.02-1.91,3.21-.87,4.52.93,1.18,2.61,1.06,4.02.85,12.69-1.96,25.37-3.91,38.06-5.87,1.52-.23,3.21-.57,4.12-1.93.92-1.37.58-3.54-.47-4.44Z"/>
    <path class="st14" d="M444.93,33.58c-14.41,2.44-28.87,4.56-43.36,6.37-.52.06-1.06.13-1.55-.07-.81-.32-1.29-1.3-1.35-2.25-.07-.95.19-1.88.45-2.79,14.36-2.26,28.71-4.51,43.07-6.77.63-.1,1.29-.2,1.89.05.82.34,1.34,1.26,1.5,2.2s.03,1.91-.11,2.86c-.26.02-.53.04-.53.39Z"/>
    <path class="st6" d="M390.45,96.46c2.37-10.59-1.98-22.72-10.12-28.21-8.14-5.49-19.35-3.87-26.09,3.77-3.89-10.11-12.45-17.6-21.88-19.14-9.44-1.54-19.44,2.91-25.57,11.39-6.14,8.48-8.2,20.69-5.28,31.24-10.34,2.97-18.45,14.33-19.05,26.69-.12,2.53.42,5.67,2.51,6.38,1.7.57,3.47-.95,4.27-2.79.8-1.84.95-3.95,1.44-5.93,1.15-4.68,4.34-8.61,8.29-10.21,3.37-1.37,7.21-1.14,10.28-3.26,3.96-2.72,5.45-8.4,8.14-12.73,4.63-7.44,13.61-10.78,21.09-7.83,4.3,1.69,8.08,5.2,12.58,5.86,5.6.82,10.88-2.93,16.43-4.06,7.86-1.61,16.37,2.56,22.97,8.83Z"/>
    <path class="st6" d="M388.5,89.45c2.37,2.94,2.35,7.91-.04,10.83-1.19,1.45-2.87,2.44-3.69,4.19-.41.87-.57,1.86-.95,2.74s-1.11,1.7-1.99,1.68c-1.02-.03-1.76-1.24-1.78-2.38-.02-1.14.48-2.2.99-3.19.51-.99,1.06-2,1.15-3.14.17-2.11-1.26-3.92-1.88-5.93-.88-2.83-.13-5.92.63-8.79"/>
    <path class="st6" d="M387.48,106"/>
    <path class="st6" d="M380.85,89.6c-1.15-.88-2.79-.47-3.87.51s-1.76,2.4-2.46,3.75c-.7,1.35-1.51,2.71-2.74,3.45-1.33.8-3.24.99-3.73,2.59-.32,1.03.09,2.41-.67,3.1-.63.57-1.63.12-2.08-.64-.7-1.19-.42-2.76-.04-4.12.39-1.35.87-2.79.51-4.16-.41-1.56-1.84-2.56-3.27-2.8s-2.89.14-4.31.51c-1.45.38-3.11.97-3.63,2.52-.38,1.13,0,2.38.23,3.56.23,1.18.24,2.62-.62,3.36-.78.68-1.96.48-2.76,1.13-1.21.99-1.11,3.56-2.57,3.92-.81.2-1.61-.54-1.91-1.41s-.23-1.83-.21-2.76c.05-2.62-.31-5.28-1.34-7.64-1.02-2.36-2.74-4.38-4.91-5.37-1.29-.59-2.76-.83-3.82-1.85-1.45-1.39-1.7-3.8-1.56-5.93.15-2.18.61-4.39,1.67-6.23,1.06-1.84,2.77-3.29,4.72-3.55,1.67-.23,3.37.43,4.79,1.45s2.61,2.39,3.78,3.74"/>
    <path class="st6" d="M337,85.56c-1.47-.85-3.54.55-3.55,2.4-.01,1.56,1.16,3.09.64,4.54-.83,2.34-4.85,1.47-5.39,3.91-.27,1.24.58,2.83-.27,3.67-.81.8-2.11-.32-2.25-1.51-.14-1.19.34-2.37.37-3.57.06-2.34-1.89-4.5-3.98-4.41s-3.89,2.41-3.67,4.74c.11,1.15.64,2.28.44,3.42-.4,2.29-3.38,3.04-3.89,5.31-.25,1.13.2,2.31.14,3.47-.06,1.16-1.22,2.4-2.04,1.68-.5-.44-.47-1.27-.58-1.97s-.74-1.47-1.28-1.1c-1.04,1.78-2.91,2.92-4.81,2.92-1,0-2.22-.19-2.82.7-.54.8-.18,1.93-.06,2.92.32,2.61-1.15,5.03-2.55,7.15-1.01-.41-1.11-1.97-.85-3.13.26-1.16.69-2.46.15-3.49-.63-1.2-2.27-1.25-3.3-.46-1.03.79-1.58,2.13-2.09,3.4-.93,2.33-1.86,4.66-2.78,6.99-.67,1.69-1.42,3.48-2.81,4.48-1.39,1-3.63.75-4.28-.96-.37-.99-.12-2.12.18-3.14,1.76-5.96,4.92-11.39,9.09-15.59,3.79-3.82,8.36-6.61,12.01-10.61,2.65-2.9,4.76-6.41,6.14-10.25,1.09-3.02,1.77-6.34,3.68-8.81,2.01-2.6,5.12-3.85,8.17-4.28,6.57-.94,13.47,1.57,18.29,6.65"/>
    <path class="st4" d="M412.51,41.8l.27.03"/>
    <path class="st4" d="M413.53,38.55c-3.1.16-6.18.59-9.23,1.29-.25.06-.52.11-.74-.05-.22-.16-.32-.5-.34-.82-.05-.66.13-1.3.32-1.91.34-1.11.77-2.29,1.6-2.9.55-.41,1.22-.51,1.86-.61,1.6-.24,3.2-.47,4.8-.71.36-.05.75-.1,1.05.14.35.27.49.82.57,1.32.16.96.27,1.94.3,2.92,0,.25.01.5-.05.74-.06.24-.19.46-.15.6Z"/>
    <path class="st17" d="M124.56,177.74c-.98-.42-1.97-.85-2.95-1.27"/>
    <path class="st17" d="M55.34,181.44c-6.78-2.58-13.37-6.16-18.2-11.62-4.83-5.47-7.69-13.07-6.23-20.25,1.46-7.18,7.89-13.42,15.13-13.29,7.22.12,13.05,5.94,17.15,11.95,15.72,23.12,17.11,52.8,22.14,80.41,2.05,11.21,5.02,22.78,12.5,31.29,7.48,8.51,20.71,12.85,30.34,6.94,3.36-2.06,6.24-5.97,5.17-9.8-.83-2.97-3.77-4.86-6.7-5.73-2.93-.87-6.04-1.01-8.94-1.98-4.86-1.63-8.75-5.52-11.35-10-2.6-4.47-4.05-9.52-5.3-14.55-4-16.09-6.25-32.62-11.23-48.43-4.98-15.8-13.09-31.23-26.28-41.07-6.29-4.69-13.93-8.03-21.71-7.47-10.42.75-19.73,8.98-22.41,19.21-2.68,10.22,1.13,21.74,8.96,28.73,7.84,6.99,19.25,9.39,26.95,5.66Z"/>
    <path class="st17" d="M199.39,149.17c-4.3-13.13-8.6-26.26-12.89-39.39-4.46-13.63-9.85-28.45-22.14-35.6-10.45-6.08-24.12-4.88-34.41,1.48-8.51,5.26-15.03,14.02-16.92,23.94-1.89,9.92,1.16,20.85,8.43,27.76,7.28,6.91,18.71,9.23,27.77,5-5.81,9.7-18.89,14.16-29.31,9.99-11.23-4.5-17.59-17.17-18.36-29.38-.96-15.28,5.73-30.93,17.6-40.4,11.87-9.48,28.64-12.38,42.82-7.1,18.71,6.97,30.57,26.38,34.79,46.12,2.47,11.57,2.81,23.6,2.63,37.58Z"/>
    <path class="st17" d="M412.32,280.99c3.4-2.94,6.8-5.87,10.2-8.81"/>
    <path class="st17" d="M339.22,197.46c5.13,7.85,14.73,12.47,23.98,11.53s17.75-7.4,21.24-16.13c1.45-3.64,2.06-7.81.73-11.5-1.37-3.81-4.68-6.69-8.39-8.2-3.72-1.51-7.82-1.78-11.81-1.58-11.78.61-23.32,5.39-32.14,13.32-8.83,7.93-14.89,18.95-16.9,30.72-1.3,7.59-.95,15.35-.6,23.04.33,7.35.67,14.69,1,22.04.17,3.75.13,8.04-2.64,10.54-3.01,2.72-8.12,1.72-10.83-1.32-2.7-3.03-3.39-7.43-3.05-11.51s1.57-8.01,2.2-12.05c2.21-14.1-2.91-28.68-.19-42.68,1.96-10.06,7.9-19.02,15.41-25.89,14.32-13.08,34.66-18.94,53.71-15.93,7.97,1.26,16.2,4.35,20.92,10.97,3.35,4.7,4.54,10.68,4.51,16.47-.05,10.83-4.36,21.82-12.51,28.84-8.15,7.02-20.2,9.51-30.02,5.2-9.81-4.31-16.39-15.74-14.62-25.9Z"/>
    <path class="st17" d="M498.02,87.7c-8.84.41-18.24,4.89-21.31,13.29-1.89,5.18-1.11,10.91-.39,16.38,3.38,25.86,4.44,53.12-5.73,77.08-.6,1.41-1.42,2.97-2.9,3.31-1.77.42-3.47-1.28-3.78-3.09-.32-1.81.33-3.63.95-5.36,2.16-6.1,3.97-12.35,4.78-18.78,2.95-23.31-7.34-46.6-5.59-70.03.48-6.38,2.4-13.46,7.94-16.52,4.22-2.33,9.41-1.67,14.01-3.07,2.89-.88,5.49-2.56,8.35-3.52,2.86-.96,6.32-1.07,8.6.92,2.03,1.77,2.58,5.05,1.24,7.4-1.34,2.35-4.42,3.5-6.17,1.99Z"/>
    <path class="st17" d="M630.57,130.86c2.5,2.86,6.92,3.59,10.39,2.08s5.9-4.98,6.65-8.72c.6-3-.02-6.57-2.53-8.28-2.21-1.5-5.32-1.22-7.38-2.93-2.18-1.81-2.27-5.46-.55-7.71s4.82-3.14,7.61-2.69c2.78.45,5.27,2.07,7.32,4.02,4.66,4.44,7.41,10.86,7.42,17.34.02,6.48-2.7,12.91-7.34,17.37-3.1,2.98-7.12,5.11-11.38,5.37-4.27.25-8.73-1.56-11.19-5.1-2.46-3.54-2.51-8.78.98-10.75Z"/>
    <path class="st17" d="M671.7,191.3"/>
    <path class="st17" d="M636.39,152.43c-.66,3.81,1.72,7.52,4.57,9.9,2.85,2.38,6.26,3.95,9,6.48,4.22,3.9,6.48,9.79,7.33,15.69.85,5.9.44,11.92.15,17.88-.66,13.68-.66,27.4.02,41.08.22,4.48.51,9.01-.23,13.42-.74,4.41-2.64,8.79-6.02,11.44-3.61,2.84-8.33,3.35-12.55,4.96-4.22,1.62-8.5,5.39-8.08,10.17.11,1.25.6,2.53,1.56,3.25,1.38,1.04,3.31.67,4.8-.18,1.49-.85,2.74-2.13,4.24-2.95,5.97-3.25,13.05,1.6,19.73,1.08,6.98-.55,12.55-7.19,14.33-14.43,1.78-7.25.52-14.94-1.27-22.19-1.79-7.24-4.12-14.43-4.49-21.92-.53-10.92,3.16-21.49,4.95-32.25,1.14-6.83,1.47-14.09-1.03-20.48-2.88-7.37-9.24-12.67-16.14-15.7-6.9-3.03-14.4-4.07-20.87-5.28Z"/>
    <path class="st17" d="M743.34,128.83c-5.84-1.79-11.49-4.66-15.7-9.13-4.22-4.47-6.87-10.68-6.22-16.82.65-6.15,5-11.97,10.93-13.43,4.66-1.14,9.65.42,13.63,3.13,7.51,5.11,11.87,13.83,14.48,22.6,2.61,8.77,3.81,17.94,6.73,26.62.39,1.15.88,2.38,1.94,2.96,1.61.88,3.59-.26,4.84-1.6,5.07-5.42,5.04-14,2.99-21.17-4.08-14.3-14.45-25.74-24.49-36.62-5.44-5.89-11.7-12.18-19.65-12.64-7.34-.42-13.93,4.33-19.36,9.35-6.14,5.67-11.92,12.4-13.58,20.64-2.27,11.22,4.23,23.26,14.24,28.59,10.01,5.33,22.66,4.34,29.23-2.49Z"/>
    <path class="st8" d="M410.86,38.63c-1.18.26-2.38.45-3.57.56-.07,0-.15.01-.21-.04-.1-.08-.1-.26-.08-.41.07-.73.14-1.47.41-2.12.27-.65.78-1.2,1.36-1.23.6-.03,1.15.49,1.45,1.13.31.64.41,1.39.64,2.11Z"/>
    <path class="st4" d="M428.1,36.41c-2.94.16-5.87.61-8.77,1.34-.24.06-.5.12-.7-.05-.21-.17-.3-.52-.32-.85-.05-.68.13-1.35.31-1.99.33-1.16.73-2.38,1.52-3.02.53-.43,1.15-.53,1.76-.63,1.52-.24,3.04-.49,4.56-.73.34-.05.71-.1,1,.14.34.28.46.85.54,1.37.16,1,.25,2.01.29,3.03,0,.26.01.52-.04.76s-.18.47-.14.62Z"/>
    <path class="st8" d="M425.56,36.49c-1.12.27-2.26.47-3.4.59-.07,0-.14.01-.2-.04-.09-.09-.09-.27-.08-.43.07-.75.14-1.53.39-2.2s.74-1.25,1.3-1.28c.57-.03,1.09.51,1.38,1.17.29.66.39,1.44.61,2.19Z"/>
    <path class="st4" d="M443.05,34.07c-2.94.17-5.87.66-8.77,1.44-.24.06-.5.12-.7-.05-.21-.18-.3-.56-.32-.92-.05-.73.13-1.45.31-2.14.33-1.25.73-2.56,1.52-3.24.53-.46,1.15-.57,1.76-.68,1.52-.26,3.04-.53,4.56-.79.34-.06.71-.11,1,.15.34.3.46.91.54,1.48.16,1.07.25,2.16.29,3.26,0,.28.01.56-.04.82s-.18.51-.14.67Z"/>
    <path class="st8" d="M440.51,34.16c-1.12.29-2.26.5-3.4.63-.07,0-.14.01-.2-.04-.09-.09-.09-.29-.08-.46.07-.81.14-1.64.39-2.37.26-.73.74-1.34,1.3-1.37.57-.03,1.09.54,1.38,1.26.29.72.39,1.55.61,2.35Z"/>
    <path class="st20" d="M445.39,27.67c-14.92,2.34-29.84,4.67-44.76,7.01-.29.05-.6.09-.89,0-.84-.25-1.11-1.39-1.22-2.34-.15-1.26-.27-2.69.48-3.67.61-.81,1.63-1.05,2.57-1.25,14.43-2.96,29.05-4.73,43.64-6.49.97,2.17,1.06,4.78.18,6.73Z"/>
    <path class="st21" d="M444.9,16.33c-14.61,2.8-29.25,5.31-43.94,7.55-.51.08-1.04.16-1.46.48-1.08.79-.99,2.54-.78,3.95,14.29-2.35,28.57-4.69,42.86-7.04.81-.13,1.63-.27,2.37-.66s1.39-1.07,1.57-1.95c.18-.87-.23-1.91-.62-2.34Z"/>
    <path class="st2" d="M444.44,16.53c.38,0,.77.01,1.15.02-13.54,2.48-27.09,4.97-40.63,7.45-2.01.37-4.08.74-6.09.34,2.62-3.17,5.93-5.55,9.21-7.87,5.36-3.79,10.76-7.51,16.2-11.16-.73-1.47-.33-3.5.9-4.51,1.22-1.01,3.11-.86,4.19.32.91-.7,2.12-.89,3.17-.49,1.05.39,1.9,1.36,2.23,2.52,1.32-.75,3.01-.62,4.22.33,1.21.94,1.88,2.65,1.67,4.26.58-1.44,2.61-1.44,3.66-.37,1.05,1.07,1.37,2.72,1.64,4.27.19,1.07.35,2.28-.22,3.17-.48.76-1.35,1.07-2.16,1.32-2.57.78-5.19,1.35-7.83,1.72"/>
    <path class="st2" d="M437.65,17.51c2.17.16,4.37,0,6.5-.49.64-.15,1.32-.35,1.75-.9.38-.5.48-1.18.54-1.82.14-1.45.18-2.95-.19-4.35-.37-1.4-1.22-2.72-2.44-3.29-1.23-.57-2.83-.24-3.58.98.11-.22.23-.43.34-.65-1.72,1.1-3.35,2.36-4.87,3.76"/>
    <path class="st2" d="M439.77,10.02c1.08-1.28,1.58-3.16,1.15-4.83-.43-1.68-1.83-3.04-3.41-3.14-1.03-.07-2.05.37-2.88,1.04s-1.5,1.56-2.1,2.48c-.88,1.35-1.63,2.79-2.26,4.3"/>
    <path class="st2" d="M434.09,4.73c.77-.88.9-2.37.29-3.39-.74-1.24-2.33-1.61-3.61-1.14-1.28.46-2.27,1.6-3.01,2.84s-1.26,2.61-1.95,3.88"/>
    <path class="st22" d="M415.65,4.04c.55-1.02,1.58-1.84,2.64-1.64.9.17,1.57,1.02,1.94,1.93s.51,1.92.81,2.86c.35,1.1.91,2.11,1.36,3.17.46,1.06.81,2.21.72,3.37-.09,1.1-.6,2.14-1.31,2.92-.72.78-1.64,1.31-2.61,1.63-2.73.9-5.88.04-7.9-2.16-.48-.52-.91-1.14-1.05-1.86-.24-1.23.41-2.44,1.03-3.5,1.51-2.6,3.4-4.91,4.38-6.72Z"/>
    <path class="st12" d="M423.74,14.45l.27-.23c-1.24.16-2.26,1.48-2.2,2.85-.55-.34-1.23-.39-1.81-.14s-1.05.81-1.24,1.46c-.73-1-2.28-1.09-3.11-.18.09-.73-.5-1.46-1.17-1.45.36-.27.41-.88.21-1.31-.2-.43-.59-.71-.98-.94-.39-.23-.8-.42-1.13-.75-.52-.52-.75-1.32-1.28-1.82-.47-.46-1.14-.63-1.77-.57s-1.23.31-1.79.63c-2.42,1.35-4.36,3.96-4.53,6.94-.05.84.06,1.74.54,2.4.41.56,1.04.87,1.67,1.07,1.84.56,3.8.24,5.69-.08,1.33-.22,2.71-.47,3.81-1.31.42-.32.8-.72,1.28-.9.5-.19,1.05-.12,1.58-.07,1.78.15,3.59-.04,5.26-.71,1.67-.67,3.2-1.84,4.24-3.42"/>
    <path class="st18" d="M408.09,12.88c.8.97,1.64,1.93,2.62,2.68s2.12,1.3,3.32,1.36c-1.25.03-2.49-.46-3.52-1.24-1.03-.78-1.86-1.85-2.41-2.8Z"/>
    <path class="st18" d="M407.74,13.7c1.41,1.87,3.35,3.25,5.47,3.9-2.18-.53-4.18-1.94-5.47-3.9Z"/>
    <path class="st18" d="M409.96,12.34l-.14-.04c.63.55,1.36.98,2.12,1.27-.84-.13-1.64-.59-1.99-1.22Z"/>
    <path class="st18" d="M410.28,12.17c.21.25.49.44.8.53-.35-.07-.67-.26-.8-.53Z"/>
    <path class="st18" d="M412.16,19.9c.56.27,1.21.34,1.81.2s1.16-.5,1.57-1c-.3.57-.87.93-1.46,1.04s-1.2.01-1.92-.24Z"/>
    <path class="st18" d="M408.17,17c.69.72,1.55,1.24,2.47,1.51-.9-.15-1.75-.67-2.47-1.51Z"/>
    <path class="st18" d="M406.31,15.18c.22.27.49.5.78.68-.35-.15-.65-.43-.83-.79.02,0,.03,0,.05.12Z"/>
    <path class="st18" d="M406.59,17.31c1.14,1.15,2.3,2.31,3.69,3.07,1.38.76,3.04,1.08,4.49.47-1.49.57-3.18.34-4.62-.38-1.44-.73-2.65-1.91-3.55-3.15Z"/>
    <path class="st18" d="M404.84,17.19c.86,1.55,2.15,2.81,3.64,3.57,1.5.77,3.2,1.03,4.84.76-1.11.4-2.32.35-3.44,0-1.12-.35-2.15-1-3.07-1.79-.82-.7-1.58-1.54-1.97-2.54Z"/>
    <path class="st18" d="M403.84,19.65c.23.8.75,1.47,1.38,1.95s1.36.76,2.11.96c-.55,0-1.09-.22-1.57-.53s-.89-.72-1.29-1.14c-.29-.31-.59-.69-.63-1.24Z"/>
    <path class="st18" d="M421.2,19.43c.24.02.49,0,.71-.12s.37-.4.32-.65c.08.16.02.36-.1.49s-.28.19-.44.23c-.13.03-.28.05-.49.06Z"/>
    <path class="st18" d="M422.95,18.26c.17.03.33-.1.41-.26.08-.16.1-.35.13-.53s.07-.37.18-.51c.08-.1.19-.16.28-.25.19-.18.3-.47.32-.75s-.03-.56-.1-.83c.3.54.19,1.31-.26,1.72-.08.08-.17.14-.23.24-.08.15-.06.33-.08.5-.05.35-.33.66-.65.67Z"/>
    <path class="st18" d="M428.46,2.01c-.15.57-.13,1.18-.02,1.76.11.58.3,1.14.5,1.69-.59-1.04-.78-2.36-.48-3.46Z"/>
    <path class="st18" d="M429.35,2.02c-.24,1.33-.05,2.75.53,3.95-.43-.94-.68-1.99-.72-3.04-.01-.39,0-.81.18-.9Z"/>
    <path class="st18" d="M434.5,3.51c-.2,1.34.03,2.72.35,4.03-.49-1.33-.6-2.83-.35-4.03Z"/>
    <path class="st18" d="M435.36,5.56c-.17,1.38.09,2.82.73,4.01-.68-1.11-.95-2.51-.73-4.01Z"/>
    <path class="st18" d="M441.06,7.49c-.35.38-.47.96-.43,1.5.05.54.23,1.05.42,1.55-.45-.92-.49-2.07,0-3.05Z"/>
    <path class="st18" d="M441.98,8.36c-.4,1.33-.19,2.86.53,4.02-.71-1.21-.91-2.76-.53-4.02Z"/>
    <path class="st18" d="M443.34,9.92c-.14.58-.09,1.19.05,1.77.14.58.38,1.12.61,1.66-.58-1.02-.79-2.27-.66-3.42Z"/>
    <path class="st18" d="M425.16,5.96c.48.99,1.53,1.45,2.5,1.76.98.31,2.04.59,2.73,1.41-.82-.71-1.88-.98-2.87-1.35s-2.01-.94-2.36-1.82Z"/>
    <path class="st18" d="M430.17,7.82c.6,1.76,1.99,3.17,3.63,3.71-1.64-.53-3.03-1.9-3.63-3.71Z"/>
    <path class="st18" d="M432.95,9.59c.17.72.63,1.32,1.17,1.77.54.45,1.16.76,1.78,1.06-.63-.23-1.26-.48-1.8-.9-.54-.42-.99-1.02-1.15-1.94Z"/>
    <path class="st18" d="M436.9,12.8c.42-.15.87.05,1.23.34s.65.66,1.02.91c.39.27.86.39,1.32.34-.61.13-1.26-.03-1.75-.44-.27-.23-.49-.52-.76-.75s-.61-.41-1.05-.4Z"/>
    <path class="st18" d="M440.52,13.39c-.13.76.26,1.56.84,1.99.59.43,1.34.53,2.04.41-.68.28-1.48.15-2.05-.33-.57-.48-.9-1.3-.83-2.06Z"/>
    <ellipse class="st3" cx="416.13" cy="11.94" rx=".21" ry=".1" transform="translate(308.82 414.17) rotate(-76.71)"/>
    <ellipse class="st3" cx="417.35" cy="9.93" rx=".21" ry=".1" transform="translate(367.11 424.36) rotate(-84.45)"/>
    <ellipse class="st3" cx="415.49" cy="9.1" rx=".21" ry=".1" transform="translate(366.27 421.77) rotate(-84.45)"/>
    <ellipse class="st3" cx="416.86" cy="7.54" rx=".21" ry=".1" transform="translate(369.06 421.72) rotate(-84.45)"/>
    <ellipse class="st3" cx="418.51" cy="7.85" rx=".21" ry=".1" transform="translate(370.24 423.64) rotate(-84.45)"/>
    <ellipse class="st3" cx="418.13" cy="5.51" rx=".21" ry=".1" transform="translate(372.23 421.15) rotate(-84.45)"/>
    <ellipse class="st3" cx="420.18" cy="7.4" rx=".21" ry=".1" transform="translate(372.2 424.9) rotate(-84.45)"/>
    <ellipse class="st3" cx="419.65" cy="5.26" rx=".21" ry=".1" transform="translate(373.85 422.44) rotate(-84.45)"/>
    <ellipse class="st3" cx="419.65" cy="9.96" rx=".21" ry=".1" transform="translate(369.17 426.68) rotate(-84.45)"/>
    <ellipse class="st3" cx="418.54" cy="12.1" rx=".21" ry=".1" transform="translate(366.03 427.51) rotate(-84.45)"/>
    <ellipse class="st3" cx="420.64" cy="12.02" rx=".21" ry=".1" transform="translate(368.01 429.53) rotate(-84.45)"/>
    <ellipse class="st3" cx="419.83" cy="13.91" rx=".21" ry=".1" transform="translate(365.4 430.43) rotate(-84.45)"/>
    <ellipse class="st3" cx="417.02" cy="13.94" rx=".21" ry=".1" transform="translate(362.83 427.66) rotate(-84.45)"/>
    <ellipse class="st3" cx="414.56" cy="12.88" rx=".21" ry=".1" transform="translate(361.66 424.25) rotate(-84.45)"/>
    <ellipse class="st3" cx="412.43" cy="11.32" rx=".21" ry=".1" transform="translate(361.29 420.73) rotate(-84.45)"/>
    <ellipse class="st3" cx="414.1" cy="10.74" rx=".21" ry=".1" transform="translate(363.38 421.86) rotate(-84.45)"/>
    <ellipse class="st3" cx="412.76" cy="9.38" rx=".21" ry=".1" transform="translate(363.52 419.29) rotate(-84.45)"/>
    <ellipse class="st3" cx="414.38" cy="8.12" rx=".21" ry=".1" transform="translate(366.23 419.78) rotate(-84.45)"/>
    <ellipse class="st3" cx="414.41" cy="6.54" rx=".21" ry=".1" transform="translate(367.84 418.37) rotate(-84.45)"/>
    <ellipse class="st3" cx="415.93" cy="6.37" rx=".21" ry=".1" transform="translate(369.38 419.73) rotate(-84.45)"/>
    <ellipse class="st3" cx="415.8" cy="4.79" rx=".21" ry=".1" transform="translate(370.84 418.17) rotate(-84.45)"/>
    <ellipse class="st3" cx="417.37" cy="3.81" rx=".21" ry=".1" transform="translate(373.23 418.86) rotate(-84.45)"/>
    <ellipse class="st3" cx="418.26" cy="2.81" rx=".21" ry=".1" transform="translate(375.03 418.84) rotate(-84.45)"/>
    <ellipse class="st3" cx="419.04" cy="3.84" rx=".21" ry=".1" transform="translate(374.71 420.55) rotate(-84.45)"/>
    <ellipse class="st3" cx="421.07" cy="9.68" rx=".21" ry=".1" transform="translate(370.73 427.85) rotate(-84.45)"/>
    <ellipse class="st3" cx="418.16" cy="15.69" rx=".21" ry=".1" transform="translate(362.11 430.37) rotate(-84.45)"/>
    <ellipse class="st3" cx="421.1" cy="15.33" rx=".21" ry=".1" transform="translate(365.13 432.97) rotate(-84.45)"/>
    <ellipse class="st3" cx="421.73" cy="13.58" rx=".21" ry=".1" transform="translate(367.44 432.02) rotate(-84.45)"/>
    <ellipse class="st3" cx="422.67" cy="14.47" rx=".21" ry=".1" transform="translate(367.41 433.76) rotate(-84.45)"/>
    <ellipse class="st3" cx="416.38" cy="17.31" rx=".21" ry=".1" transform="translate(358.9 430.07) rotate(-84.45)"/>
    <ellipse class="st3" cx="415.11" cy="15.28" rx=".21" ry=".1" transform="translate(359.78 426.97) rotate(-84.45)"/>
    <path class="st9" d="M387.33,98.29c5.68-2.07,12.27.97,15.73,6.33,3.46,5.36,4.07,12.51,2.59,18.88-2.76,11.93-12.9,21.34-24.08,22.33-7.12.64-14.15-1.82-21.28-2.34-9.73-.71-19.33,2.17-28.81,4.65-9.48,2.48-19.39,4.57-28.91,2.28-9.52-2.29-18.59-10.04-20.12-20.61-.79-5.5.5-11.12,2.35-16.31,1.49-4.16,3.39-8.23,6.26-11.4,2.87-3.17,6.81-5.38,10.88-5.2-2.36-10.15-.31-21.51,5.68-29.67,5.99-8.16,15.85-12.8,25.32-11.57,9.48,1.24,18.19,8.47,21.54,18.28,5.21-5.61,13.27-7.79,20.26-5.49,6.99,2.3,12.63,8.99,14.18,16.82,1.55,7.83-1.06,16.48-6.56,21.76"/>
    <path class="st1" d="M460.02,167.02c-12.28-8.39-18.83-24.92-17.34-40.48,1.49-15.56,10.38-29.77,22.47-38.47,12.09-8.7,27.06-12.15,41.58-11.21,8.02.52,16.39,2.55,22.29,8.42,5.94,5.91,8.49,14.83,9.33,23.49,1.27,13.04-1.45,27.63-11.01,35.76-5.01,4.26-11.74,6.66-14.92,12.62-2.76,5.16-2.05,11.58-1.12,17.45,1.83,11.48,4.21,22.86,7.13,34.08,1.96,7.53,4.39,15.37,9.82,20.58,5.91,5.66,14.34,7.15,22.24,6.95,11.25-.29,23.26-4.18,29.85-13.99,4.91-7.31,6.04-17.38,2.88-25.73-3.16-8.36-10.49-14.72-18.75-16.28-3.3-.62-7.01-.4-9.54,1.96-2.53,2.36-2.93,7.37-.1,9.31,1.88,1.29,4.3.83,6.52,1.06,5.34.54,9.89,5.86,9.94,11.63.05,5.77-4.4,11.18-9.73,11.83-5.74.7-11.12-3.62-14.24-8.85-3.12-5.24-4.57-11.38-6.77-17.13-4.82-12.6-13.46-23.48-24.27-30.58,9.15-1.69,18.37-3.39,27.04-6.97,8.67-3.58,16.85-9.19,22.21-17.34,8.36-12.71,8.58-30.49,2.1-44.41-6.48-13.92-18.95-24.01-32.71-28.87-13.76-4.86-28.7-4.82-42.94-2.02-18.68,3.68-36.77,12.26-50.7,26.14-13.94,13.88-23.45,33.29-24.44,53.69-.42,8.64.73,17.58,4.74,25.08,4.01,7.5,11.2,13.33,19.23,13.9,8.03.57,16.46-5.01,19.23-11.61Z"/>
    <path class="st9" d="M399.27,98.53c.31-.73,1.2-1.08,1.86-.73l.27,10.41"/>
    <path class="st9" d="M383.43,98.52c7.1-.43,14.01-3.92,18.93-9.56,4.92-5.64,7.8-13.37,7.88-21.17.04-3.81-.55-7.61-.49-11.42.06-3.81.88-7.82,3.28-10.57,2.41-2.75,6.72-3.7,9.4-1.28,2.13,1.92,2.67,5.23,2.85,8.26.34,5.74-.12,11.5-.57,17.24-.63,8.06-1.36,16.43-5.13,23.37-2.89,5.32-7.4,9.4-12.32,12.44-4.92,3.04-10.27,5.12-15.59,7.19"/>
    <ellipse class="st19" cx="420.19" cy="42.56" rx="30.67" ry="8.63"/>
    <ellipse class="st13" cx="361.71" cy="111.19" rx="2.34" ry="2.64"/>
    <ellipse class="st13" cx="335.6" cy="113.97" rx="2.34" ry="2.64"/>
    <path class="st10" d="M343.97,122.02c1.42,2.22,4.02,3.44,6.46,3.04,2.44-.4,4.6-2.42,5.36-5"/>
    <path class="st11" d="M297.91,123.97c1.67,2.27,4.13,3.82,6.75,4.28,2.43.42,4.9-.07,7.33-.46,2.43-.39,4.96-.68,7.31.11,2.35.8,4.48,2.95,4.67,5.64.15,2.15-.93,4.19-2.28,5.75-2.14,2.47-5.01,4.1-8.02,4.95-3.01.84-6.16.93-9.26.63-2.83-.28-5.68-.9-8.19-2.36-2.51-1.45-4.68-3.82-5.57-6.78"/>
    <path class="st0" d="M444.47,33.2c-13.38,2.38-26.84,4.22-40.34,5.52-1.57.15-3.23.33-4.51,1.35-1.27,1.02-1.91,3.21-.87,4.52.93,1.18,2.61,1.06,4.02.85,12.69-1.96,25.37-3.91,38.06-5.87,1.52-.23,3.21-.57,4.12-1.93.92-1.37.58-3.54-.47-4.44Z"/>
    <path class="st14" d="M444.93,33.58c-14.41,2.44-28.87,4.56-43.36,6.37-.52.06-1.06.13-1.55-.07-.81-.32-1.29-1.3-1.35-2.25-.07-.95.19-1.88.45-2.79,14.36-2.26,28.71-4.51,43.07-6.77.63-.1,1.29-.2,1.89.05.82.34,1.34,1.26,1.5,2.2s.03,1.91-.11,2.86c-.26.02-.53.04-.53.39Z"/>
    <path class="st6" d="M390.45,96.46c2.37-10.59-1.98-22.72-10.12-28.21-8.14-5.49-19.35-3.87-26.09,3.77-3.89-10.11-12.45-17.6-21.88-19.14-9.44-1.54-19.44,2.91-25.57,11.39-6.14,8.48-8.2,20.69-5.28,31.24-10.34,2.97-18.45,14.33-19.05,26.69-.12,2.53.42,5.67,2.51,6.38,1.7.57,3.47-.95,4.27-2.79.8-1.84.95-3.95,1.44-5.93,1.15-4.68,4.34-8.61,8.29-10.21,3.37-1.37,7.21-1.14,10.28-3.26,3.96-2.72,5.45-8.4,8.14-12.73,4.63-7.44,13.61-10.78,21.09-7.83,4.3,1.69,8.08,5.2,12.58,5.86,5.6.82,10.88-2.93,16.43-4.06,7.86-1.61,16.37,2.56,22.97,8.83Z"/>
    <path class="st6" d="M388.5,89.45c2.37,2.94,2.35,7.91-.04,10.83-1.19,1.45-2.87,2.44-3.69,4.19-.41.87-.57,1.86-.95,2.74s-1.11,1.7-1.99,1.68c-1.02-.03-1.76-1.24-1.78-2.38-.02-1.14.48-2.2.99-3.19.51-.99,1.06-2,1.15-3.14.17-2.11-1.26-3.92-1.88-5.93-.88-2.83-.13-5.92.63-8.79"/>
    <path class="st6" d="M387.48,106"/>
    <path class="st6" d="M380.85,89.6c-1.15-.88-2.79-.47-3.87.51s-1.76,2.4-2.46,3.75c-.7,1.35-1.51,2.71-2.74,3.45-1.33.8-3.24.99-3.73,2.59-.32,1.03.09,2.41-.67,3.1-.63.57-1.63.12-2.08-.64-.7-1.19-.42-2.76-.04-4.12.39-1.35.87-2.79.51-4.16-.41-1.56-1.84-2.56-3.27-2.8s-2.89.14-4.31.51c-1.45.38-3.11.97-3.63,2.52-.38,1.13,0,2.38.23,3.56.23,1.18.24,2.62-.62,3.36-.78.68-1.96.48-2.76,1.13-1.21.99-1.11,3.56-2.57,3.92-.81.2-1.61-.54-1.91-1.41s-.23-1.83-.21-2.76c.05-2.62-.31-5.28-1.34-7.64-1.02-2.36-2.74-4.38-4.91-5.37-1.29-.59-2.76-.83-3.82-1.85-1.45-1.39-1.7-3.8-1.56-5.93.15-2.18.61-4.39,1.67-6.23,1.06-1.84,2.77-3.29,4.72-3.55,1.67-.23,3.37.43,4.79,1.45s2.61,2.39,3.78,3.74"/>
    <path class="st6" d="M337,85.56c-1.47-.85-3.54.55-3.55,2.4-.01,1.56,1.16,3.09.64,4.54-.83,2.34-4.85,1.47-5.39,3.91-.27,1.24.58,2.83-.27,3.67-.81.8-2.11-.32-2.25-1.51-.14-1.19.34-2.37.37-3.57.06-2.34-1.89-4.5-3.98-4.41s-3.89,2.41-3.67,4.74c.11,1.15.64,2.28.44,3.42-.4,2.29-3.38,3.04-3.89,5.31-.25,1.13.2,2.31.14,3.47-.06,1.16-1.22,2.4-2.04,1.68-.5-.44-.47-1.27-.58-1.97s-.74-1.47-1.28-1.1c-1.04,1.78-2.91,2.92-4.81,2.92-1,0-2.22-.19-2.82.7-.54.8-.18,1.93-.06,2.92.32,2.61-1.15,5.03-2.55,7.15-1.01-.41-1.11-1.97-.85-3.13.26-1.16.69-2.46.15-3.49-.63-1.2-2.27-1.25-3.3-.46-1.03.79-1.58,2.13-2.09,3.4-.93,2.33-1.86,4.66-2.78,6.99-.67,1.69-1.42,3.48-2.81,4.48-1.39,1-3.63.75-4.28-.96-.37-.99-.12-2.12.18-3.14,1.76-5.96,4.92-11.39,9.09-15.59,3.79-3.82,8.36-6.61,12.01-10.61,2.65-2.9,4.76-6.41,6.14-10.25,1.09-3.02,1.77-6.34,3.68-8.81,2.01-2.6,5.12-3.85,8.17-4.28,6.57-.94,13.47,1.57,18.29,6.65"/>
    <path class="st4" d="M412.51,41.8l.27.03"/>
    <path class="st4" d="M413.53,38.55c-3.1.16-6.18.59-9.23,1.29-.25.06-.52.11-.74-.05-.22-.16-.32-.5-.34-.82-.05-.66.13-1.3.32-1.91.34-1.11.77-2.29,1.6-2.9.55-.41,1.22-.51,1.86-.61,1.6-.24,3.2-.47,4.8-.71.36-.05.75-.1,1.05.14.35.27.49.82.57,1.32.16.96.27,1.94.3,2.92,0,.25.01.5-.05.74-.06.24-.19.46-.15.6Z"/>
    <path class="st8" d="M410.86,38.63c-1.18.26-2.38.45-3.57.56-.07,0-.15.01-.21-.04-.1-.08-.1-.26-.08-.41.07-.73.14-1.47.41-2.12.27-.65.78-1.2,1.36-1.23.6-.03,1.15.49,1.45,1.13.31.64.41,1.39.64,2.11Z"/>
    <path class="st4" d="M428.1,36.41c-2.94.16-5.87.61-8.77,1.34-.24.06-.5.12-.7-.05-.21-.17-.3-.52-.32-.85-.05-.68.13-1.35.31-1.99.33-1.16.73-2.38,1.52-3.02.53-.43,1.15-.53,1.76-.63,1.52-.24,3.04-.49,4.56-.73.34-.05.71-.1,1,.14.34.28.46.85.54,1.37.16,1,.25,2.01.29,3.03,0,.26.01.52-.04.76s-.18.47-.14.62Z"/>
    <path class="st8" d="M425.56,36.49c-1.12.27-2.26.47-3.4.59-.07,0-.14.01-.2-.04-.09-.09-.09-.27-.08-.43.07-.75.14-1.53.39-2.2s.74-1.25,1.3-1.28c.57-.03,1.09.51,1.38,1.17.29.66.39,1.44.61,2.19Z"/>
    <path class="st20" d="M445.39,27.67c-14.92,2.34-29.84,4.67-44.76,7.01-.29.05-.6.09-.89,0-.84-.25-1.11-1.39-1.22-2.34-.15-1.26-.27-2.69.48-3.67.61-.81,1.63-1.05,2.57-1.25,14.43-2.96,29.05-4.73,43.64-6.49.97,2.17,1.06,4.78.18,6.73Z"/>
    <path class="st21" d="M444.9,16.33c-14.61,2.8-29.25,5.31-43.94,7.55-.51.08-1.04.16-1.46.48-1.08.79-.99,2.54-.78,3.95,14.29-2.35,28.57-4.69,42.86-7.04.81-.13,1.63-.27,2.37-.66s1.39-1.07,1.57-1.95c.18-.87-.23-1.91-.62-2.34Z"/>
    <path class="st2" d="M444.44,16.53c.38,0,.77.01,1.15.02-13.54,2.48-27.09,4.97-40.63,7.45-2.01.37-4.08.74-6.09.34,2.62-3.17,5.93-5.55,9.21-7.87,5.36-3.79,10.76-7.51,16.2-11.16-.73-1.47-.33-3.5.9-4.51,1.22-1.01,3.11-.86,4.19.32.91-.7,2.12-.89,3.17-.49,1.05.39,1.9,1.36,2.23,2.52,1.32-.75,3.01-.62,4.22.33,1.21.94,1.88,2.65,1.67,4.26.58-1.44,2.61-1.44,3.66-.37,1.05,1.07,1.37,2.72,1.64,4.27.19,1.07.35,2.28-.22,3.17-.48.76-1.35,1.07-2.16,1.32-2.57.78-5.19,1.35-7.83,1.72"/>
    <path class="st22" d="M415.65,4.04c.55-1.02,1.58-1.84,2.64-1.64.9.17,1.57,1.02,1.94,1.93s.51,1.92.81,2.86c.35,1.1.91,2.11,1.36,3.17.46,1.06.81,2.21.72,3.37-.09,1.1-.6,2.14-1.31,2.92-.72.78-1.64,1.31-2.61,1.63-2.73.9-5.88.04-7.9-2.16-.48-.52-.91-1.14-1.05-1.86-.24-1.23.41-2.44,1.03-3.5,1.51-2.6,3.4-4.91,4.38-6.72Z"/>
    <path class="st12" d="M423.74,14.45l.27-.23c-1.24.16-2.26,1.48-2.2,2.85-.55-.34-1.23-.39-1.81-.14s-1.05.81-1.24,1.46c-.73-1-2.28-1.09-3.11-.18.09-.73-.5-1.46-1.17-1.45.36-.27.41-.88.21-1.31-.2-.43-.59-.71-.98-.94-.39-.23-.8-.42-1.13-.75-.52-.52-.75-1.32-1.28-1.82-.47-.46-1.14-.63-1.77-.57s-1.23.31-1.79.63c-2.42,1.35-4.36,3.96-4.53,6.94-.05.84.06,1.74.54,2.4.41.56,1.04.87,1.67,1.07,1.84.56,3.8.24,5.69-.08,1.33-.22,2.71-.47,3.81-1.31.42-.32.8-.72,1.28-.9.5-.19,1.05-.12,1.58-.07,1.78.15,3.59-.04,5.26-.71,1.67-.67,3.2-1.84,4.24-3.42"/>
    <path class="st18" d="M408.09,12.88c.8.97,1.64,1.93,2.62,2.68s2.12,1.3,3.32,1.36c-1.25.03-2.49-.46-3.52-1.24-1.03-.78-1.86-1.85-2.41-2.8Z"/>
    <path class="st18" d="M407.74,13.7c1.41,1.87,3.35,3.25,5.47,3.9-2.18-.53-4.18-1.94-5.47-3.9Z"/>
    <path class="st18" d="M409.96,12.34l-.14-.04c.63.55,1.36.98,2.12,1.27-.84-.13-1.64-.59-1.99-1.22Z"/>
    <path class="st18" d="M410.28,12.17c.21.25.49.44.8.53-.35-.07-.67-.26-.8-.53Z"/>
    <path class="st18" d="M412.16,19.9c.56.27,1.21.34,1.81.2s1.16-.5,1.57-1c-.3.57-.87.93-1.46,1.04s-1.2.01-1.92-.24Z"/>
    <path class="st18" d="M408.17,17c.69.72,1.55,1.24,2.47,1.51-.9-.15-1.75-.67-2.47-1.51Z"/>
    <path class="st18" d="M406.31,15.18c.22.27.49.5.78.68-.35-.15-.65-.43-.83-.79.02,0,.03,0,.05.12Z"/>
    <path class="st18" d="M406.59,17.31c1.14,1.15,2.3,2.31,3.69,3.07,1.38.76,3.04,1.08,4.49.47-1.49.57-3.18.34-4.62-.38-1.44-.73-2.65-1.91-3.55-3.15Z"/>
    <path class="st18" d="M404.84,17.19c.86,1.55,2.15,2.81,3.64,3.57,1.5.77,3.2,1.03,4.84.76-1.11.4-2.32.35-3.44,0-1.12-.35-2.15-1-3.07-1.79-.82-.7-1.58-1.54-1.97-2.54Z"/>
    <path class="st18" d="M403.84,19.65c.23.8.75,1.47,1.38,1.95s1.36.76,2.11.96c-.55,0-1.09-.22-1.57-.53s-.89-.72-1.29-1.14c-.29-.31-.59-.69-.63-1.24Z"/>
    <path class="st18" d="M421.2,19.43c.24.02.49,0,.71-.12s.37-.4.32-.65c.08.16.02.36-.1.49s-.28.19-.44.23c-.13.03-.28.05-.49.06Z"/>
    <path class="st18" d="M422.95,18.26c.17.03.33-.1.41-.26.08-.16.1-.35.13-.53s.07-.37.18-.51c.08-.1.19-.16.28-.25.19-.18.3-.47.32-.75s-.03-.56-.1-.83c.3.54.19,1.31-.26,1.72-.08.08-.17.14-.23.24-.08.15-.06.33-.08.5-.05.35-.33.66-.65.67Z"/>
    <ellipse class="st3" cx="416.13" cy="11.94" rx=".21" ry=".1" transform="translate(308.82 414.17) rotate(-76.71)"/>
    <ellipse class="st3" cx="418.54" cy="12.1" rx=".21" ry=".1" transform="translate(366.03 427.51) rotate(-84.45)"/>
    <ellipse class="st3" cx="420.64" cy="12.02" rx=".21" ry=".1" transform="translate(368.01 429.53) rotate(-84.45)"/>
    <ellipse class="st3" cx="419.83" cy="13.91" rx=".21" ry=".1" transform="translate(365.4 430.43) rotate(-84.45)"/>
    <ellipse class="st3" cx="417.02" cy="13.94" rx=".21" ry=".1" transform="translate(362.83 427.66) rotate(-84.45)"/>
    <ellipse class="st3" cx="414.56" cy="12.88" rx=".21" ry=".1" transform="translate(361.66 424.25) rotate(-84.45)"/>
    <ellipse class="st3" cx="418.16" cy="15.69" rx=".21" ry=".1" transform="translate(362.11 430.37) rotate(-84.45)"/>
    <ellipse class="st3" cx="421.1" cy="15.33" rx=".21" ry=".1" transform="translate(365.13 432.97) rotate(-84.45)"/>
    <ellipse class="st3" cx="421.73" cy="13.58" rx=".21" ry=".1" transform="translate(367.44 432.02) rotate(-84.45)"/>
    <ellipse class="st3" cx="422.67" cy="14.47" rx=".21" ry=".1" transform="translate(367.41 433.76) rotate(-84.45)"/>
    <ellipse class="st3" cx="416.38" cy="17.31" rx=".21" ry=".1" transform="translate(358.9 430.07) rotate(-84.45)"/>
    <ellipse class="st3" cx="415.11" cy="15.28" rx=".21" ry=".1" transform="translate(359.78 426.97) rotate(-84.45)"/>
    <ellipse class="st3" cx="411.59" cy="11.49" rx=".21" ry=".1" transform="translate(360.36 420.04) rotate(-84.45)"/>
    <ellipse class="st3" cx="422.24" cy="11.38" rx=".21" ry=".1" transform="translate(370.09 430.54) rotate(-84.45)"/>
    <path class="st16" d="M340.5,152.88c-2.3-2.99-.79-8.56,3.38-12.43,4.17-3.87,9.42-4.58,11.72-1.59,2.3,2.99.79,8.56-3.38,12.43-4.17,3.87-9.42,4.58-11.72,1.59Z"/>
    <path class="st16" d="M362.29,150.09c-2.3-2.99-.79-8.56,3.38-12.43,4.17-3.87,9.42-4.58,11.72-1.59,2.3,2.99.79,8.56-3.38,12.43-4.17,3.87-9.42,4.58-11.72,1.59Z"/>
  </g>
  <path class="st4" d="M444.32,34.02c-3.76.17-7.52.65-11.22,1.42-.3.06-.64.12-.9-.05-.27-.18-.39-.55-.41-.9-.06-.72.16-1.43.39-2.11.42-1.23.94-2.52,1.94-3.19.67-.45,1.48-.57,2.26-.67,1.95-.26,3.89-.52,5.84-.78.43-.06.91-.11,1.28.15.43.3.59.9.7,1.45.2,1.06.32,2.13.37,3.21.01.27.02.55-.05.81s-.24.5-.18.66Z"/>
  <path class="st8" d="M441.07,34.11c-1.44.29-2.89.5-4.35.62-.09,0-.18.01-.26-.04-.12-.09-.12-.29-.1-.45.09-.8.18-1.62.5-2.33s.94-1.32,1.66-1.35c.73-.03,1.39.54,1.77,1.24.37.7.5,1.53.78,2.32Z"/>
  <path class="st4" d="M444.32,34.02c-3.76.17-7.52.65-11.22,1.42-.3.06-.64.12-.9-.05-.27-.18-.39-.55-.41-.9-.06-.72.16-1.43.39-2.11.42-1.23.94-2.52,1.94-3.19.67-.45,1.48-.57,2.26-.67,1.95-.26,3.89-.52,5.84-.78.43-.06.91-.11,1.28.15.43.3.59.9.7,1.45.2,1.06.32,2.13.37,3.21.01.27.02.55-.05.81s-.24.5-.18.66Z"/>
  <path class="st8" d="M441.07,34.11c-1.44.29-2.89.5-4.35.62-.09,0-.18.01-.26-.04-.12-.09-.12-.29-.1-.45.09-.8.18-1.62.5-2.33s.94-1.32,1.66-1.35c.73-.03,1.39.54,1.77,1.24.37.7.5,1.53.78,2.32Z"/>
  <ellipse class="st3" cx="413.44" cy="10.95" rx=".2" ry=".11" transform="translate(351.43 419.86) rotate(-82.89)"/>
  <ellipse class="st3" cx="412.86" cy="12.93" rx=".2" ry=".11" transform="translate(348.96 421.02) rotate(-82.89)"/>
  <ellipse class="st3" cx="414.89" cy="9.44" rx=".2" ry=".11" transform="translate(354.2 419.98) rotate(-82.89)"/>
  <ellipse class="st3" cx="417.6" cy="9.59" rx=".2" ry=".11" transform="translate(356.42 422.79) rotate(-82.89)"/>
  <ellipse class="st3" cx="420.08" cy="10.09" rx=".2" ry=".11" transform="translate(358.1 425.69) rotate(-82.89)"/>
  <ellipse class="st3" cx="414.2" cy="7.75" rx=".2" ry=".11" transform="translate(355.27 417.81) rotate(-82.89)"/>
  <ellipse class="st3" cx="416.97" cy="7.54" rx=".2" ry=".11" transform="translate(357.9 420.37) rotate(-82.89)"/>
  <ellipse class="st3" cx="419.55" cy="8.12" rx=".2" ry=".11" transform="translate(359.58 423.45) rotate(-82.89)"/>
  <circle class="st3" cx="417.28" cy="5.19" r=".04"/>
  <ellipse class="st3" cx="419.04" cy="5.72" rx=".2" ry=".11" transform="translate(361.53 420.83) rotate(-82.89)"/>
  <ellipse class="st3" cx="416.38" cy="5.72" rx=".2" ry=".11" transform="translate(359.2 418.19) rotate(-82.89)"/>
  <ellipse class="st3" cx="417.97" cy="4.16" rx=".2" ry=".11" transform="translate(362.13 418.4) rotate(-82.89)"/>
</svg>