<?xml version="1.0" encoding="UTF-8"?>
<svg id="Layer_1" xmlns="http://www.w3.org/2000/svg" version="1.1" viewBox="0 0 881.97 395.96">
  <!-- Generator: Adobe Illustrator 30.5.1, SVG Export Plug-In . SVG Version: 2.1.4 Build 3)  -->
  <defs>
    <style>
      .st0 {
        fill: #efa74c;
      }

      .st1, .st2 {
        fill: #e8ddd2;
      }

      .st3 {
        fill: #efede4;
      }

      .st4 {
        fill: #231f20;
      }

      .st5 {
        fill: #e76d44;
      }

      .st6 {
        fill: #ebdfd2;
      }

      .st7 {
        fill: #a35959;
      }

      .st2 {
        font-family: FranklinGothic-Medium, 'Franklin Gothic Medium';
        font-size: 56.23px;
        font-weight: 500;
      }

      .st8 {
        fill: #ec8561;
      }

      .st9 {
        fill: #efe0d1;
      }

      .st10 {
        stroke: #232525;
      }

      .st10, .st11 {
        fill: none;
        stroke-miterlimit: 10;
      }

      .st12 {
        fill: #efebe3;
      }

      .st13 {
        fill: #232525;
      }

      .st14 {
        fill: #f1d19c;
      }

      .st15 {
        fill: #5f5c55;
      }

      .st11 {
        stroke: #d5c9c1;
      }

      .st16 {
        fill: #6a6661;
      }

      .st17 {
        fill: #a25959;
      }

      .st18 {
        fill: #ecd5ae;
      }

      .st19 {
        fill: #d5c9c1;
      }

      .st20 {
        fill: #efa74d;
      }

      .st21 {
        fill: #eed5ae;
      }

      .st22 {
        fill: #e76c49;
      }
    </style>
  </defs>
  <path class="st9" d="M389.7,99.8c5.71-2.11,12.34.99,15.83,6.43,3.48,5.44,4.09,12.71,2.61,19.17-2.78,12.11-12.98,21.66-24.23,22.68-7.16.65-14.24-1.85-21.41-2.38-9.79-.72-19.45,2.21-28.99,4.72-9.54,2.52-19.51,4.64-29.09,2.31-9.58-2.33-18.71-10.19-20.24-20.93-.8-5.59.5-11.3,2.37-16.56,1.5-4.22,3.41-8.36,6.3-11.58,2.88-3.22,6.85-5.46,10.94-5.28-2.37-10.31-.31-21.84,5.72-30.13,6.02-8.29,15.94-13,25.48-11.75,9.54,1.25,18.3,8.6,21.67,18.56,5.24-5.69,13.35-7.91,20.39-5.58,7.03,2.33,12.71,9.13,14.26,17.08,1.56,7.95-1.07,16.74-6.6,22.09"/>
  <path class="st1" d="M57.79,185.15c-7.14-1.47-14.19-4.27-19.8-9.3-5.6-5.03-9.6-12.49-9.66-20.38s4.35-15.92,11.21-18.54c6.58-2.51,14.12.23,19.37,5.2,5.26,4.97,8.62,11.86,11.48,18.76,11.73,28.29,16.93,59.15,23.02,89.45,1.05,5.2,2.3,10.75,5.95,14.32,4.46,4.36,11.13,4.46,17.12,4.06,5.69-.38,11.37-.99,17.01-1.83,3.1-.46,6.68-1.37,8-4.45,1.72-4.04-1.63-8.3-4.42-11.56-10.87-12.69-16.8-29.39-21.5-45.95-4.7-16.56-8.51-33.62-16.12-48.85-7.61-15.24-19.81-28.8-35.36-32.73-9.48-2.4-19.62-1.01-28.59,3.09-8.97,4.1-16.81,10.83-23.96,19.88-7.69,14.06-7.46,32.79.76,47.26.99,1.17,1.98,2.35,3.52,3.8,2.01,1.52,4.43,2.42,7.42,2.6,11.76.51,23.64-4.74,34.53-14.83Z"/>
  <path class="st1" d="M34.84,190.53c-4.34,16.25-8.68,32.5-13.02,48.75-1.46,5.47-2.94,10.99-5.48,15.98-2.54,4.99-6.25,9.46-11.09,11.69-1.26.58-2.6,1.01-3.69,1.92-1.08.9-1.87,2.45-1.45,3.87.44,1.49,2.04,2.25,3.48,2.17,1.44-.09,2.76-.81,4.08-1.44,6.12-2.89,13.04-3.78,19.62-2.51,1.14.22,2.32.5,3.45.22s2.2-1.35,2.11-2.61c-.11-1.64-1.94-2.42-3.46-2.49s-3.22.13-4.38-.93c-1.55-1.42-1.14-4.08-.59-6.2,5.98-22.99,11.96-45.98,10.4-68.41Z"/>
  <path class="st1" d="M90.08,193.7c-8.3,8.18-19.87,10.83-30.78,13.58-10.92,2.75-22.47,6.38-29.67,15.71,9.14-7.58,21.68-7.09,33.01-9.26,12.46-2.38,24.07-8.28,27.45-20.03Z"/>
  <path class="st1" d="M749.67,132.54c-7.14-1.47-14.19-4.27-19.8-9.3-5.6-5.03-9.6-12.49-9.66-20.38-.06-7.89,4.35-15.92,11.21-18.54,6.58-2.51,14.12.23,19.37,5.2,5.26,4.97,8.62,11.86,11.48,18.76,11.73,28.29,16.93,59.15,23.02,89.45,1.05,5.2,2.3,10.75,5.95,14.32,4.46,4.36,11.13,4.46,17.12,4.06,5.69-.38,11.37-.99,17.01-1.83,3.1-.46,6.68-1.37,8-4.45,1.72-4.04-1.63-8.3-4.42-11.56-10.87-12.69-16.8-29.39-21.5-45.95-4.7-16.56-8.51-33.62-16.12-48.85-7.61-15.24-19.81-28.8-35.36-32.73-9.48-2.4-19.62-1.01-28.59,3.09-8.97,4.1-16.81,10.83-23.96,19.88-7.69,14.06-7.46,32.79.76,47.26.99,1.17,1.98,2.35,3.52,3.8,2.01,1.52,4.43,2.42,7.42,2.6,11.76.51,23.64-4.74,34.53-14.83Z"/>
  <path class="st1" d="M726.72,137.91c-4.34,16.25-8.68,32.5-13.02,48.75-1.46,5.47-2.94,10.99-5.48,15.98-2.54,4.99-6.25,9.46-11.09,11.69-1.26.58-2.6,1.01-3.69,1.92-1.08.9-1.87,2.45-1.45,3.87.44,1.49,2.04,2.25,3.48,2.17,1.44-.09,2.76-.81,4.08-1.44,6.12-2.89,13.04-3.78,19.62-2.51,1.14.22,2.32.5,3.45.22s2.2-1.35,2.11-2.61c-.11-1.64-1.94-2.42-3.46-2.49-1.52-.07-3.22.13-4.38-.93-1.55-1.42-1.14-4.08-.59-6.2,5.98-22.99,11.96-45.98,10.4-68.41Z"/>
  <path class="st1" d="M781.96,141.09c-8.3,8.18-19.87,10.83-30.78,13.58-10.92,2.75-22.47,6.38-29.67,15.71,9.14-7.58,21.68-7.09,33.01-9.26,12.46-2.38,24.07-8.28,27.45-20.03Z"/>
  <path class="st1" d="M151.51,129.31c-8.06,2.07-17.06-1.7-21.93-8.97-4.87-7.27-5.44-17.57-1.62-25.54,2.31-4.83,6.57-9.01,11.58-9.21,4.38-.17,8.36,2.67,11.7,5.76,8.52,7.89,15.09,18.23,18.84,29.68,7.01,21.35,4.13,45.24,10.24,66.91.71,2.53,1.58,5.09,3.2,7.08s4.12,3.31,6.5,2.73c2.79-.68,4.56-3.62,5.71-6.45,2.38-5.87,3.37-12.28,3.95-18.66,2.07-23.03-1.1-46.6-9.17-68.02-4.35-11.54-10.48-22.92-20.23-29.52-11.85-8.03-27.75-7.46-39.95-.06-12.2,7.39-20.73,20.89-23.7,36.91-.15,1.86-.29,3.73-1.07,6.82,1.25,9.63,7.33,18.35,15.53,22.27,8.2,3.91,18.24,2.88,25.62-2.63,2.73-2.04,5.23-4.93,4.79-9.1Z"/>
  <path class="st1" d="M195.55,159.28c12.71-20.6,23.41-42.67,31.87-65.7,2.13-5.81,4.36-12.02,9.04-15.65,5.52-4.29,12.94-3.87,19.71-3.26,3.62.32,7.56.8,10.14,3.58,2.33,2.5,2.96,6.28,3.33,9.81,3.44,32.61-5.62,65.78-1.24,98.25.64,4.75,2.29,10.34,6.58,11.52,1.11.31,2.39.32,3.17,1.22,1.14,1.3.44,3.48-.57,4.9-4.67,6.56-13.36,7.35-21,7.59-4.71.15-9.42.29-14.13.44-2.82.09-5.78.15-8.32-1.19-2.54-1.34-4.48-4.56-3.58-7.47,1.63-5.26,9.74-4.28,12.27-9.1.83-1.58.87-3.49.89-5.32.23-24.28.45-48.56.68-72.84.03-3.18-.2-6.91-2.66-8.63-2.01-1.4-4.79-.75-6.66.86-1.87,1.61-3.02,3.99-4.06,6.32-5.75,12.79-10.08,26.3-16,38.99-5.92,12.7-13.71,24.82-24.69,32.6"/>
  <path class="st1" d="M141.21,137.8c1.62,13.54,1.17,27.37-1.31,40.75-.88,4.77-2.12,9.68-5.13,13.28-1.09,1.31-2.4,2.43-3.29,3.91-.88,1.49-1.25,3.54-.31,4.98,1.07,1.65,3.23,1.79,5.08,1.77,5.03-.05,10.06-.09,15.1-.14,1.34-.01,2.73-.04,3.92-.7s2.09-2.17,1.7-3.55c-.41-1.43-1.93-2.08-3.3-2.25-1.37-.17-2.82-.05-4.04-.73-2.67-1.47-2.69-5.52-2.42-8.75,1.45-17.4.51-35.04-6-48.58Z"/>
  <path class="st6" d="M340.99,201.27c4.43,8.45,13.06,14.13,22.01,14.48s17.94-4.62,22.93-12.7c3.47-5.62,4.99-13.07,2.48-19.26-3.47-8.59-13.2-12.01-21.84-11.9-18.71.24-36.41,12.98-45.47,30.74-9.07,17.77-9.87,39.8-3.87,59.03,3.67,11.76,10.14,23.03,20.07,29.2,11.93,7.43,27.47,6.21,39.43-1.18,11.96-7.39,20.51-20.24,25.32-34.23,4.82-13.99,6.17-29.11,6.24-44.04.06-14.49-1.59-30.33-11.06-40.54,22.15,12.8,36.82,39.58,36.59,66.82-.23,27.24-15.34,53.72-37.71,66.08-19.99,11.05-44.34,10.79-65.36,2.31-12.86-5.19-24.89-13.49-33.38-25.19-15.73-21.66-17.11-53.66-5.12-77.97,11.99-24.31,36.02-40.49,61.25-43.74,14.53-1.87,30.84,1.01,40.42,13.02,9.47,11.88,9.8,30.01,4.19,44.49-4.87,12.57-14.29,23.54-26.36,27.3-12.07,3.76-26.59-1.03-32.97-12.78-3.88-7.15-4.44-16.31,2.21-29.96Z"/>
  <path class="st1" d="M462.83,169.59c-12.35-8.52-18.94-25.3-17.45-41.1,1.49-15.8,10.45-30.23,22.61-39.06,12.16-8.84,27.23-12.34,41.84-11.38,8.07.53,16.49,2.59,22.43,8.55,5.98,6,8.54,15.06,9.39,23.85,1.28,13.24-1.46,28.06-11.08,36.31-5.05,4.33-11.81,6.77-15.02,12.82-2.77,5.24-2.06,11.76-1.13,17.72,1.84,11.66,4.23,23.22,7.17,34.61,1.97,7.65,4.42,15.61,9.88,20.89,5.94,5.75,14.42,7.26,22.38,7.05,11.32-.3,23.41-4.24,30.04-14.2,4.94-7.42,6.08-17.64,2.9-26.13s-10.56-14.95-18.87-16.53c-3.32-.63-7.06-.4-9.6,1.99-2.54,2.4-2.95,7.49-.1,9.45,1.89,1.31,4.33.84,6.56,1.07,5.37.55,9.95,5.95,10,11.81.05,5.86-4.43,11.35-9.79,12.01-5.78.71-11.19-3.67-14.33-8.99-3.13-5.32-4.6-11.56-6.81-17.39-4.85-12.8-13.54-23.84-24.42-31.05,9.21-1.71,18.48-3.45,27.21-7.08,8.72-3.63,16.96-9.33,22.35-17.61,8.41-12.91,8.64-30.96,2.11-45.1-6.52-14.14-19.07-24.38-32.91-29.32-13.84-4.93-28.88-4.9-43.2-2.05-18.8,3.74-36.99,12.45-51.01,26.54-14.02,14.1-23.59,33.8-24.59,54.51-.42,8.77.73,17.85,4.77,25.47,4.03,7.61,11.27,13.54,19.34,14.12,8.08.58,16.56-5.08,19.34-11.79Z"/>
  <path class="st1" d="M473.03,92.99c4.72,35.83,1.46,72.27-1.8,108.3-.26,2.89-.77,6.21-3.1,7.65-1.05.65-2.4.83-3.19,1.82-1.16,1.45-.38,3.89,1.1,4.95s3.36,1.13,5.13,1.16c7.36.14,14.72.28,22.09.42,3.46.07,7.37-.08,9.68-2.87,1.95-2.36,2.07-5.84,2.09-9.01.21-37.43.42-74.85.63-112.28.02-3.9-.35-8.58-3.51-10.44-2.83-1.67-6.29-.09-9.17,1.48-6.29,3.44-12.58,6.88-19.95,8.83Z"/>
  <path class="st6" d="M633.6,289.21c5.19-36.5,7.75-73.85,2.29-110.31-.54-3.62-1.37-7.59-4.11-9.74-3.08-2.41-7.62-1.46-10.52,1.21-2.9,2.67-4.46,6.66-5.59,10.59-.46,1.61-.91,3.31-2.01,4.49s-3.1,1.58-4.15.35c-.53-.62-.71-1.48-.81-2.32-1.16-9.24,4.96-18.23,12.76-22.16,7.79-3.93,16.83-3.72,25.32-2.27,5.69.97,11.7,2.7,15.49,7.41,4.28,5.31,4.68,12.99,4.86,20.04.7,26.84,1.39,53.68,2.09,80.52.11,4.31.13,8.96-2.18,12.46-3.34,5.06-10.03,5.59-15.74,5.05-5.71-.54-11.94-1.56-17.7,4.65Z"/>
  <ellipse class="st6" cx="640.9" cy="125.8" rx="14.87" ry="17.94"/>
  <path class="st1" d="M240.7,98.69c-13.09,31.92-27.42,63.24-42.93,93.85-.96,1.89-2,3.87-3.72,4.95-2.93,1.84-6.97.21-8.79-2.88-1.81-3.1-1.72-7.15-.58-10.61,1.13-3.46,3.19-6.45,5.18-9.42,18.21-27.08,33.91-56.14,50.84-75.89Z"/>
  <path class="st9" d="M401.7,100.04c.31-.74,1.21-1.1,1.87-.75l.27,10.57"/>
  <path class="st9" d="M385.77,100.04c7.14-.44,14.09-3.98,19.04-9.71s7.84-13.57,7.93-21.5c.04-3.87-.56-7.72-.5-11.6.06-3.87.88-7.94,3.3-10.73,2.42-2.79,6.76-3.76,9.46-1.3,2.15,1.95,2.69,5.31,2.87,8.38.34,5.83-.12,11.68-.57,17.5-.64,8.18-1.36,16.68-5.16,23.73-2.91,5.4-7.45,9.55-12.39,12.63-4.95,3.09-10.33,5.2-15.68,7.3"/>
  <ellipse class="st19" cx="422.75" cy="43.21" rx="30.85" ry="8.76"/>
  <path class="st15" d="M367.42,143.68c-2.86-.71-5.72-1.41-8.59-2.12-.33-.08-.68-.16-1.01-.08-.59.15-.99.79-1.12,1.44-.18.97.15,2,.69,2.79.55.79,1.29,1.38,2.05,1.92,1.96,1.4,4.05,2.54,6.16,3.64,1.16.61,2.46,1.22,3.69.81"/>
  <path class="st16" d="M364.51,152.4c-2.32-3.04-.8-8.69,3.4-12.62,4.19-3.93,9.47-4.65,11.79-1.61,2.32,3.04.8,8.69-3.4,12.62s-9.47,4.65-11.79,1.61Z"/>
  <path class="st15" d="M345.49,146.51c-2.86-.71-5.72-1.41-8.59-2.12-.33-.08-.68-.16-1.01-.08-.59.15-.99.79-1.12,1.44-.18.97.15,2,.69,2.79s1.29,1.38,2.05,1.92c1.96,1.4,4.05,2.54,6.16,3.64,1.16.61,2.46,1.22,3.69.81"/>
  <path class="st16" d="M342.58,155.23c-2.32-3.04-.8-8.69,3.4-12.62,4.19-3.93,9.47-4.65,11.79-1.61,2.32,3.04.8,8.69-3.4,12.62-4.19,3.93-9.47,4.65-11.79,1.61Z"/>
  <ellipse class="st13" cx="363.91" cy="112.9" rx="2.36" ry="2.68"/>
  <ellipse class="st13" cx="337.65" cy="115.73" rx="2.36" ry="2.68"/>
  <path class="st10" d="M346.07,123.9c1.43,2.25,4.05,3.5,6.5,3.09,2.46-.41,4.63-2.46,5.39-5.08"/>
  <path class="st11" d="M299.73,125.88c1.68,2.3,4.15,3.88,6.79,4.34,2.44.43,4.93-.07,7.38-.46,2.45-.4,4.99-.69,7.36.12,2.36.81,4.51,2.99,4.7,5.72.15,2.18-.94,4.25-2.3,5.84-2.15,2.51-5.04,4.17-8.07,5.02-3.03.86-6.2.95-9.32.64-2.85-.28-5.71-.92-8.24-2.39-2.53-1.48-4.71-3.88-5.61-6.88"/>
  <path class="st0" d="M447.18,33.71c-13.46,2.42-27,4.29-40.59,5.6-1.58.15-3.25.33-4.54,1.37s-1.92,3.26-.88,4.59c.94,1.2,2.62,1.08,4.04.86,12.76-1.99,25.53-3.97,38.29-5.96,1.53-.24,3.23-.58,4.15-1.96.92-1.39.59-3.6-.47-4.51Z"/>
  <path class="st14" d="M447.65,34.09c-14.5,2.48-29.05,4.63-43.62,6.47-.52.07-1.07.13-1.56-.07-.82-.33-1.3-1.32-1.36-2.28-.07-.96.2-1.91.45-2.83,14.44-2.29,28.89-4.58,43.33-6.87.64-.1,1.3-.2,1.9.05.82.34,1.34,1.28,1.51,2.24s.03,1.94-.11,2.9c-.27.02-.53.04-.54.4Z"/>
  <path class="st7" d="M392.83,97.94c2.38-10.75-1.99-23.07-10.18-28.64-8.19-5.58-19.47-3.93-26.25,3.83-3.91-10.27-12.52-17.87-22.02-19.43s-19.56,2.96-25.73,11.56c-6.17,8.61-8.25,21.01-5.32,31.72-10.4,3.02-18.56,14.55-19.17,27.1-.13,2.57.42,5.76,2.53,6.48,1.71.58,3.49-.97,4.29-2.83.81-1.86.96-4.01,1.45-6.02,1.16-4.75,4.37-8.74,8.34-10.37,3.39-1.39,7.25-1.16,10.34-3.31,3.98-2.76,5.48-8.53,8.19-12.93,4.66-7.56,13.69-10.94,21.22-7.95,4.32,1.72,8.13,5.28,12.65,5.95,5.63.83,10.95-2.97,16.54-4.13,7.91-1.63,16.47,2.6,23.11,8.97Z"/>
  <path class="st7" d="M390.87,90.82c2.38,2.99,2.36,8.03-.04,10.99-1.2,1.48-2.89,2.48-3.71,4.25-.41.88-.57,1.89-.95,2.79s-1.11,1.73-2,1.71c-1.03-.03-1.77-1.25-1.79-2.41-.02-1.16.49-2.24,1-3.24.52-1,1.07-2.03,1.16-3.19.17-2.15-1.27-3.98-1.89-6.02-.88-2.87-.13-6.01.63-8.93"/>
  <path class="st7" d="M389.84,107.63"/>
  <path class="st7" d="M383.17,90.98c-1.16-.9-2.81-.48-3.9.52-1.09.99-1.77,2.44-2.48,3.8-.71,1.37-1.52,2.76-2.76,3.5-1.34.81-3.26,1.01-3.75,2.63-.32,1.05.09,2.45-.67,3.15-.63.58-1.64.12-2.09-.64-.7-1.21-.43-2.81-.04-4.18.39-1.37.87-2.83.51-4.22-.41-1.58-1.85-2.6-3.29-2.85s-2.91.14-4.33.52c-1.46.39-3.13.98-3.66,2.56-.38,1.15,0,2.42.23,3.62.23,1.2.24,2.66-.62,3.42-.78.69-1.98.48-2.78,1.15-1.21,1.01-1.11,3.61-2.58,3.98-.82.2-1.62-.55-1.92-1.43-.3-.88-.23-1.86-.22-2.8.05-2.66-.32-5.36-1.35-7.76-1.03-2.39-2.76-4.45-4.94-5.45-1.3-.6-2.78-.85-3.85-1.88-1.46-1.41-1.71-3.85-1.57-6.02.15-2.22.61-4.45,1.68-6.33,1.06-1.87,2.79-3.34,4.74-3.61,1.68-.23,3.39.43,4.82,1.47s2.62,2.43,3.8,3.8"/>
  <path class="st7" d="M339.05,86.87c-1.48-.86-3.56.56-3.57,2.44-.01,1.58,1.16,3.14.65,4.61-.83,2.37-4.88,1.5-5.43,3.97-.27,1.25.58,2.87-.27,3.73-.81.81-2.13-.32-2.27-1.53-.14-1.21.34-2.4.37-3.62.06-2.38-1.9-4.57-4.01-4.48s-3.91,2.45-3.69,4.82c.11,1.17.64,2.32.44,3.47-.4,2.33-3.4,3.09-3.91,5.39-.25,1.15.2,2.34.14,3.52-.06,1.18-1.23,2.44-2.05,1.7-.5-.45-.47-1.29-.58-2-.12-.71-.74-1.5-1.29-1.12-1.04,1.81-2.93,2.96-4.84,2.97-1.01,0-2.23-.2-2.83.72-.54.82-.18,1.96-.06,2.96.32,2.65-1.16,5.11-2.56,7.26-1.01-.42-1.12-2-.85-3.18.26-1.18.69-2.49.15-3.55-.63-1.22-2.29-1.27-3.32-.47-1.03.8-1.59,2.16-2.1,3.45-.93,2.37-1.87,4.73-2.8,7.1-.68,1.72-1.43,3.54-2.83,4.55s-3.66.76-4.3-.98c-.38-1-.12-2.15.18-3.19,1.77-6.05,4.95-11.57,9.15-15.83,3.82-3.88,8.41-6.71,12.08-10.77,2.66-2.94,4.79-6.51,6.18-10.41,1.09-3.07,1.78-6.44,3.7-8.94,2.03-2.64,5.15-3.9,8.22-4.35,6.61-.95,13.55,1.59,18.4,6.75"/>
  <path class="st5" d="M415.02,42.44l.27.03"/>
  <path class="st5" d="M416.06,39.15c-3.11.16-6.22.6-9.28,1.31-.25.06-.53.11-.75-.05-.22-.16-.32-.51-.34-.83-.05-.67.14-1.32.33-1.94.35-1.13.77-2.32,1.61-2.95.56-.42,1.22-.52,1.87-.62,1.61-.24,3.22-.48,4.83-.72.36-.05.75-.1,1.06.14.36.27.49.83.58,1.34.17.97.27,1.97.31,2.96,0,.25.01.51-.05.75-.06.24-.2.46-.15.61Z"/>
  <path class="st17" d="M125.32,180.48c-.99-.43-1.98-.86-2.97-1.29"/>
  <path class="st17" d="M55.68,184.23c-6.82-2.62-13.45-6.25-18.31-11.8-4.86-5.55-7.73-13.27-6.26-20.56,1.47-7.29,7.94-13.62,15.22-13.5,7.26.12,13.13,6.03,17.25,12.14,15.81,23.48,17.21,53.62,22.28,81.64,2.06,11.38,5.05,23.13,12.58,31.77,7.53,8.65,20.84,13.04,30.53,7.05,3.39-2.09,6.28-6.06,5.2-9.95-.84-3.02-3.79-4.93-6.74-5.82-2.95-.88-6.08-1.03-8.99-2.01-4.89-1.66-8.8-5.61-11.42-10.15-2.62-4.54-4.07-9.67-5.33-14.78-4.02-16.33-6.29-33.13-11.3-49.17-5.01-16.05-13.17-31.71-26.45-41.7-6.33-4.76-14.01-8.15-21.85-7.59-10.48.76-19.85,9.12-22.54,19.5-2.69,10.38,1.13,22.07,9.02,29.17,7.89,7.09,19.37,9.53,27.12,5.75Z"/>
  <path class="st17" d="M200.61,151.47c-4.32-13.33-8.65-26.67-12.97-40-4.49-13.84-9.91-28.89-22.28-36.15-10.51-6.17-24.27-4.95-34.62,1.5-8.57,5.35-15.13,14.23-17.03,24.31-1.9,10.07,1.16,21.17,8.48,28.19,7.32,7.02,18.82,9.37,27.94,5.08-5.85,9.85-19.01,14.38-29.49,10.14-11.3-4.57-17.7-17.43-18.47-29.84-.96-15.51,5.76-31.4,17.7-41.02,11.94-9.62,28.81-12.57,43.08-7.21,18.82,7.07,30.75,26.79,35,46.83,2.49,11.75,2.83,23.96,2.65,38.16Z"/>
  <path class="st17" d="M414.84,285.31c3.42-2.98,6.84-5.96,10.26-8.95"/>
  <path class="st17" d="M341.29,200.5c5.16,7.98,14.82,12.66,24.13,11.7,9.31-.96,17.86-7.51,21.37-16.38,1.46-3.7,2.07-7.93.74-11.67-1.38-3.87-4.7-6.79-8.44-8.32s-7.86-1.81-11.89-1.6c-11.86.62-23.46,5.47-32.34,13.52-8.88,8.05-14.98,19.24-17.01,31.2-1.3,7.7-.96,15.58-.61,23.39.33,7.46.67,14.92,1,22.38.17,3.81.13,8.17-2.66,10.7-3.03,2.76-8.17,1.74-10.89-1.34-2.72-3.08-3.41-7.55-3.07-11.68.34-4.13,1.58-8.13,2.21-12.23,2.22-14.32-2.93-29.12-.19-43.34,1.97-10.21,7.95-19.31,15.51-26.29,14.41-13.28,34.87-19.23,54.04-16.17,8.02,1.28,16.3,4.42,21.05,11.14,3.37,4.77,4.57,10.84,4.54,16.72-.05,11-4.39,22.16-12.59,29.29-8.2,7.13-20.33,9.65-30.2,5.28-9.87-4.38-16.49-15.99-14.71-26.3Z"/>
  <path class="st17" d="M501.06,89.05c-8.89.42-18.36,4.97-21.44,13.5-1.9,5.26-1.11,11.07-.39,16.63,3.4,26.26,4.47,53.93-5.77,78.27-.6,1.43-1.43,3.01-2.91,3.36-1.78.42-3.49-1.3-3.81-3.14-.32-1.84.34-3.69.95-5.45,2.17-6.19,3.99-12.54,4.81-19.07,2.97-23.67-7.39-47.32-5.62-71.11.48-6.48,2.41-13.67,7.99-16.78,4.24-2.36,9.47-1.69,14.1-3.11,2.91-.89,5.52-2.6,8.4-3.57,2.88-.98,6.35-1.09,8.66.94,2.04,1.8,2.6,5.13,1.25,7.51-1.35,2.38-4.45,3.56-6.21,2.02Z"/>
  <path class="st17" d="M634.41,132.88c2.51,2.9,6.97,3.64,10.45,2.11s5.94-5.05,6.69-8.86c.61-3.05-.02-6.67-2.54-8.41-2.22-1.53-5.35-1.24-7.42-2.97-2.2-1.83-2.29-5.54-.55-7.83s4.85-3.19,7.65-2.73c2.8.46,5.3,2.1,7.36,4.08,4.68,4.51,7.45,11.03,7.47,17.61.02,6.58-2.72,13.11-7.38,17.64-3.12,3.03-7.16,5.19-11.45,5.45-4.29.26-8.79-1.58-11.26-5.18-2.47-3.59-2.52-8.92.99-10.92Z"/>
  <path class="st17" d="M675.8,194.25"/>
  <path class="st17" d="M640.27,154.78c-.67,3.87,1.73,7.63,4.6,10.05,2.87,2.42,6.29,4.01,9.05,6.58,4.25,3.96,6.52,9.94,7.38,15.94.86,5.99.44,12.1.15,18.16-.67,13.89-.66,27.82.02,41.72.22,4.55.51,9.14-.23,13.63-.74,4.48-2.66,8.92-6.06,11.62-3.64,2.88-8.38,3.4-12.63,5.04-4.25,1.64-8.56,5.48-8.13,10.33.11,1.27.6,2.57,1.57,3.3,1.39,1.06,3.33.68,4.83-.18,1.49-.87,2.75-2.16,4.27-2.99,6.01-3.3,13.13,1.63,19.85,1.1,7.03-.55,12.62-7.3,14.42-14.66,1.79-7.36.52-15.17-1.28-22.53-1.8-7.36-4.15-14.65-4.51-22.25-.53-11.08,3.17-21.82,4.98-32.75,1.14-6.93,1.48-14.3-1.03-20.8-2.9-7.48-9.29-12.87-16.24-15.94-6.95-3.08-14.49-4.13-21-5.36Z"/>
  <path class="st17" d="M747.88,130.81c-5.88-1.82-11.56-4.73-15.8-9.27-4.24-4.54-6.91-10.84-6.26-17.08.65-6.24,5.03-12.15,11-13.63,4.69-1.16,9.7.43,13.71,3.18,7.56,5.19,11.94,14.04,14.57,22.94,2.63,8.91,3.83,18.22,6.77,27.02.39,1.16.89,2.42,1.95,3,1.62.89,3.61-.26,4.87-1.63,5.1-5.51,5.07-14.21,3.01-21.49-4.1-14.52-14.54-26.14-24.64-37.18-5.47-5.98-11.77-12.37-19.77-12.83-7.38-.42-14.02,4.4-19.48,9.49-6.17,5.75-11.99,12.59-13.67,20.96-2.28,11.39,4.26,23.62,14.33,29.03,10.07,5.42,22.79,4.4,29.41-2.53Z"/>
  <text class="st2" transform="translate(49.85 364.1) scale(.96 1)"><tspan x="0" y="0">we’d love to hear your thoughts</tspan></text>
  <text/>
  <path class="st8" d="M413.37,39.23c-1.19.27-2.39.46-3.6.57-.07,0-.15.01-.21-.04-.1-.08-.1-.27-.08-.42.07-.74.15-1.49.42-2.15s.78-1.22,1.37-1.25c.6-.03,1.15.49,1.46,1.14.31.65.42,1.41.64,2.14Z"/>
  <path class="st5" d="M430.71,36.97c-2.96.16-5.91.62-8.82,1.36-.24.06-.5.12-.71-.05-.21-.17-.3-.53-.33-.87-.05-.69.13-1.37.31-2.02.33-1.18.74-2.41,1.53-3.06.53-.43,1.16-.54,1.77-.64,1.53-.25,3.06-.5,4.59-.74.34-.06.71-.1,1.01.14.34.28.47.86.55,1.39.16,1.01.26,2.04.29,3.08,0,.26.01.53-.04.78s-.19.48-.14.63Z"/>
  <path class="st8" d="M428.16,37.05c-1.13.28-2.27.48-3.42.59-.07,0-.14.01-.2-.04-.1-.09-.09-.28-.08-.43.07-.77.14-1.55.4-2.24s.74-1.27,1.3-1.3c.57-.03,1.1.51,1.39,1.19.29.68.4,1.47.61,2.22Z"/>
  <path class="st5" d="M445.76,34.6c-2.96.18-5.91.67-8.82,1.47-.24.07-.5.13-.71-.05-.21-.18-.3-.57-.33-.93-.05-.74.13-1.47.31-2.17.33-1.27.74-2.6,1.53-3.29.53-.47,1.16-.58,1.77-.69,1.53-.27,3.06-.53,4.59-.8.34-.06.71-.11,1.01.15.34.3.47.93.55,1.5.16,1.09.26,2.2.29,3.31,0,.28.01.57-.04.83s-.19.52-.14.68Z"/>
  <path class="st8" d="M443.2,34.69c-1.13.3-2.27.51-3.42.64-.07,0-.14.01-.2-.04-.1-.09-.09-.3-.08-.46.07-.82.14-1.67.4-2.41.26-.74.74-1.36,1.3-1.4.57-.03,1.1.55,1.39,1.28s.4,1.58.61,2.39Z"/>
  <path class="st20" d="M448.11,28.1c-15.01,2.37-30.02,4.74-45.04,7.11-.3.05-.6.09-.89,0-.85-.25-1.11-1.41-1.23-2.38-.15-1.28-.27-2.73.48-3.72.62-.82,1.64-1.07,2.59-1.27,14.52-3.01,29.22-4.8,43.91-6.59.97,2.2,1.06,4.86.18,6.84Z"/>
  <path class="st21" d="M447.61,16.58c-14.69,2.84-29.43,5.4-44.21,7.67-.51.08-1.04.17-1.47.48-1.09.81-1,2.58-.78,4.01,14.37-2.38,28.75-4.77,43.12-7.15.81-.13,1.64-.27,2.38-.67.74-.39,1.4-1.09,1.58-1.98.18-.89-.23-1.94-.62-2.37Z"/>
  <path class="st3" d="M447.15,16.79c.39,0,.77.01,1.16.02-13.63,2.52-27.25,5.04-40.88,7.56-2.03.37-4.1.75-6.12.35,2.64-3.22,5.96-5.64,9.26-7.99,5.39-3.85,10.83-7.63,16.3-11.33-.73-1.5-.33-3.55.9-4.58,1.23-1.02,3.13-.88,4.22.32.91-.71,2.13-.9,3.19-.5,1.05.4,1.91,1.38,2.25,2.56,1.33-.76,3.03-.62,4.24.33,1.22.96,1.89,2.69,1.68,4.33.58-1.46,2.62-1.46,3.68-.37,1.06,1.09,1.38,2.77,1.65,4.34.19,1.09.35,2.31-.22,3.22-.48.77-1.35,1.09-2.17,1.34-2.58.79-5.22,1.38-7.88,1.75"/>
  <path class="st3" d="M440.32,17.78c2.19.16,4.39,0,6.54-.5.65-.15,1.33-.35,1.76-.91.38-.5.48-1.2.54-1.85.14-1.48.19-3-.19-4.42-.37-1.43-1.22-2.76-2.46-3.34-1.23-.58-2.85-.24-3.6.99.11-.22.23-.44.34-.66-1.73,1.11-3.37,2.39-4.9,3.82"/>
  <path class="st3" d="M442.45,10.18c1.08-1.3,1.59-3.21,1.16-4.91-.43-1.7-1.84-3.09-3.43-3.19-1.04-.07-2.06.38-2.9,1.06-.84.68-1.51,1.58-2.11,2.52-.88,1.37-1.64,2.83-2.27,4.36"/>
  <path class="st3" d="M436.74,4.8c.78-.9.91-2.4.29-3.44-.74-1.25-2.35-1.63-3.63-1.16-1.29.47-2.28,1.62-3.02,2.88s-1.27,2.65-1.97,3.94"/>
  <path class="st22" d="M418.18,4.1c.55-1.03,1.59-1.87,2.65-1.67.9.17,1.58,1.04,1.95,1.96s.52,1.95.82,2.9c.35,1.12.91,2.14,1.37,3.21.46,1.07.82,2.24.72,3.42-.09,1.12-.6,2.18-1.32,2.97-.72.79-1.65,1.33-2.62,1.66-2.75.91-5.91.04-7.95-2.19-.48-.53-.92-1.15-1.06-1.89-.24-1.25.41-2.48,1.03-3.56,1.52-2.64,3.42-4.99,4.4-6.82Z"/>
  <path class="st12" d="M426.33,14.68l.27-.24c-1.25.16-2.27,1.51-2.22,2.9-.55-.34-1.24-.4-1.82-.14s-1.06.82-1.25,1.48c-.74-1.02-2.3-1.11-3.13-.18.09-.74-.51-1.48-1.18-1.48.37-.28.41-.89.21-1.33-.21-.44-.6-.72-.99-.95-.39-.23-.81-.43-1.14-.76-.52-.53-.76-1.34-1.29-1.85-.48-.46-1.14-.64-1.78-.58s-1.24.32-1.8.63c-2.43,1.37-4.38,4.03-4.56,7.04-.05.85.06,1.77.55,2.44.41.57,1.05.89,1.68,1.08,1.85.57,3.82.25,5.72-.08,1.34-.23,2.72-.48,3.84-1.33.42-.32.81-.73,1.29-.91.5-.19,1.05-.12,1.58-.07,1.79.15,3.61-.04,5.29-.72,1.68-.68,3.22-1.86,4.27-3.47"/>
  <path class="st18" d="M410.58,13.08c.81.99,1.65,1.96,2.63,2.73s2.14,1.32,3.34,1.38c-1.26.03-2.51-.46-3.54-1.26-1.04-.8-1.88-1.88-2.43-2.84Z"/>
  <path class="st18" d="M410.23,13.91c1.42,1.9,3.37,3.3,5.51,3.96-2.19-.54-4.2-1.96-5.51-3.96Z"/>
  <path class="st18" d="M412.46,12.53l-.14-.05c.64.56,1.37,1,2.14,1.29-.85-.13-1.65-.6-2-1.24Z"/>
  <path class="st18" d="M412.79,12.36c.21.26.5.45.8.54-.35-.07-.68-.26-.8-.54Z"/>
  <path class="st18" d="M414.67,20.2c.57.27,1.21.34,1.82.2s1.17-.5,1.58-1.01c-.3.58-.88.94-1.47,1.05-.59.11-1.21.01-1.93-.24Z"/>
  <path class="st18" d="M410.66,17.26c.69.73,1.56,1.26,2.48,1.53-.91-.16-1.76-.68-2.48-1.53Z"/>
  <path class="st18" d="M408.79,15.42c.22.28.49.51.78.69-.35-.15-.65-.44-.84-.81.02,0,.03,0,.05.12Z"/>
  <path class="st18" d="M409.07,17.58c1.15,1.16,2.32,2.34,3.71,3.11,1.39.77,3.06,1.09,4.51.47-1.5.58-3.2.35-4.65-.39-1.45-.74-2.67-1.94-3.57-3.2Z"/>
  <path class="st18" d="M407.32,17.45c.87,1.57,2.16,2.85,3.67,3.63,1.51.78,3.22,1.05,4.87.77-1.11.4-2.34.36-3.46,0-1.13-.36-2.16-1.02-3.09-1.81-.82-.71-1.59-1.56-1.99-2.58Z"/>
  <path class="st18" d="M406.3,19.95c.23.81.76,1.5,1.39,1.98s1.37.77,2.12.97c-.56,0-1.1-.22-1.58-.54s-.9-.73-1.3-1.15c-.29-.31-.6-.7-.64-1.26Z"/>
  <path class="st18" d="M423.77,19.73c.24.02.5,0,.71-.12s.37-.4.32-.66c.08.16.02.37-.1.5s-.28.19-.44.23c-.13.03-.28.05-.49.06Z"/>
  <path class="st18" d="M425.53,18.54c.17.03.33-.1.41-.26s.1-.36.13-.54.07-.38.18-.52c.08-.1.19-.17.29-.26.2-.19.3-.47.32-.76s-.03-.57-.11-.85c.3.55.19,1.33-.26,1.75-.08.08-.18.14-.23.25-.08.15-.06.34-.08.51-.05.36-.33.67-.66.68Z"/>
  <path class="st18" d="M431.08,2.04c-.15.58-.13,1.2-.02,1.79.11.59.31,1.16.5,1.72-.6-1.06-.78-2.4-.48-3.51Z"/>
  <path class="st18" d="M431.97,2.05c-.24,1.35-.05,2.79.53,4.01-.43-.96-.68-2.02-.72-3.09-.01-.4,0-.82.19-.92Z"/>
  <path class="st18" d="M437.16,3.56c-.2,1.36.03,2.76.36,4.09-.49-1.35-.6-2.87-.36-4.09Z"/>
  <path class="st18" d="M438.02,5.65c-.17,1.4.09,2.86.74,4.07-.69-1.13-.96-2.55-.74-4.07Z"/>
  <path class="st18" d="M443.75,7.6c-.36.38-.48.97-.43,1.52.05.55.24,1.06.42,1.57-.45-.93-.49-2.1,0-3.09Z"/>
  <path class="st18" d="M444.68,8.49c-.4,1.35-.19,2.91.53,4.08-.71-1.23-.92-2.81-.53-4.08Z"/>
  <path class="st18" d="M446.05,10.08c-.14.58-.09,1.21.05,1.79.14.58.38,1.13.61,1.68-.58-1.03-.8-2.31-.66-3.47Z"/>
  <path class="st18" d="M427.75,6.05c.48,1,1.54,1.47,2.52,1.79.99.32,2.05.6,2.75,1.43-.83-.72-1.89-.99-2.89-1.37s-2.03-.96-2.38-1.85Z"/>
  <path class="st18" d="M432.8,7.94c.61,1.79,2,3.22,3.65,3.77-1.65-.53-3.05-1.93-3.65-3.77Z"/>
  <path class="st18" d="M435.59,9.74c.17.73.64,1.34,1.18,1.8.54.45,1.17.77,1.79,1.08-.63-.23-1.27-.49-1.81-.91-.54-.42-1-1.03-1.16-1.97Z"/>
  <path class="st18" d="M439.57,13c.42-.15.88.06,1.23.35s.65.67,1.03.92c.39.27.87.39,1.33.35-.61.13-1.27-.03-1.76-.45-.27-.23-.5-.53-.77-.77s-.61-.42-1.06-.4Z"/>
  <path class="st18" d="M443.2,13.59c-.13.77.26,1.58.85,2.02.59.44,1.35.53,2.05.42-.68.28-1.49.15-2.06-.34-.58-.49-.9-1.32-.83-2.1Z"/>
  <ellipse class="st4" cx="418.67" cy="12.12" rx=".21" ry=".1" transform="translate(311.94 417.14) rotate(-76.9)"/>
  <ellipse class="st4" cx="419.89" cy="10.09" rx=".21" ry=".1" transform="translate(369.85 427.11) rotate(-84.53)"/>
  <ellipse class="st4" cx="418.03" cy="9.24" rx=".21" ry=".1" transform="translate(369.01 424.49) rotate(-84.53)"/>
  <ellipse class="st4" cx="419.41" cy="7.66" rx=".21" ry=".1" transform="translate(371.83 424.43) rotate(-84.53)"/>
  <ellipse class="st4" cx="421.07" cy="7.97" rx=".21" ry=".1" transform="translate(373.02 426.36) rotate(-84.53)"/>
  <ellipse class="st4" cx="420.68" cy="5.59" rx=".21" ry=".1" transform="translate(375.04 423.83) rotate(-84.53)"/>
  <ellipse class="st4" cx="422.75" cy="7.51" rx=".21" ry=".1" transform="translate(374.99 427.62) rotate(-84.53)"/>
  <ellipse class="st4" cx="422.21" cy="5.34" rx=".21" ry=".1" transform="translate(376.68 425.12) rotate(-84.53)"/>
  <ellipse class="st4" cx="422.21" cy="10.11" rx=".21" ry=".1" transform="translate(371.92 429.44) rotate(-84.53)"/>
  <ellipse class="st4" cx="421.09" cy="12.29" rx=".21" ry=".1" transform="translate(368.74 430.29) rotate(-84.53)"/>
  <ellipse class="st4" cx="423.21" cy="12.21" rx=".21" ry=".1" transform="translate(370.74 432.32) rotate(-84.53)"/>
  <ellipse class="st4" cx="422.39" cy="14.13" rx=".21" ry=".1" transform="translate(368.09 433.25) rotate(-84.53)"/>
  <ellipse class="st4" cx="419.56" cy="14.15" rx=".21" ry=".1" transform="translate(365.5 430.46) rotate(-84.53)"/>
  <ellipse class="st4" cx="417.09" cy="13.08" rx=".21" ry=".1" transform="translate(364.33 427.03) rotate(-84.53)"/>
  <ellipse class="st4" cx="414.95" cy="11.5" rx=".21" ry=".1" transform="translate(363.97 423.46) rotate(-84.53)"/>
  <ellipse class="st4" cx="416.63" cy="10.91" rx=".21" ry=".1" transform="translate(366.08 424.6) rotate(-84.53)"/>
  <ellipse class="st4" cx="415.28" cy="9.52" rx=".21" ry=".1" transform="translate(366.24 422) rotate(-84.53)"/>
  <ellipse class="st4" cx="416.91" cy="8.25" rx=".21" ry=".1" transform="translate(368.98 422.48) rotate(-84.53)"/>
  <ellipse class="st4" cx="416.93" cy="6.64" rx=".21" ry=".1" transform="translate(370.61 421.04) rotate(-84.53)"/>
  <ellipse class="st4" cx="418.46" cy="6.47" rx=".21" ry=".1" transform="translate(372.16 422.41) rotate(-84.53)"/>
  <ellipse class="st4" cx="418.34" cy="4.86" rx=".21" ry=".1" transform="translate(373.65 420.83) rotate(-84.53)"/>
  <ellipse class="st4" cx="419.92" cy="3.87" rx=".21" ry=".1" transform="translate(376.06 421.51) rotate(-84.53)"/>
  <ellipse class="st4" cx="420.81" cy="2.85" rx=".21" ry=".1" transform="translate(377.88 421.48) rotate(-84.53)"/>
  <ellipse class="st4" cx="421.6" cy="3.9" rx=".21" ry=".1" transform="translate(377.56 423.21) rotate(-84.53)"/>
  <ellipse class="st4" cx="423.64" cy="9.83" rx=".21" ry=".1" transform="translate(373.5 430.61) rotate(-84.53)"/>
  <ellipse class="st4" cx="420.71" cy="15.94" rx=".21" ry=".1" transform="translate(364.77 433.21) rotate(-84.53)"/>
  <ellipse class="st4" cx="423.67" cy="15.57" rx=".21" ry=".1" transform="translate(367.81 435.82) rotate(-84.53)"/>
  <ellipse class="st4" cx="424.3" cy="13.79" rx=".21" ry=".1" transform="translate(370.16 434.85) rotate(-84.53)"/>
  <ellipse class="st4" cx="425.25" cy="14.69" rx=".21" ry=".1" transform="translate(370.11 436.61) rotate(-84.53)"/>
  <ellipse class="st4" cx="418.92" cy="17.57" rx=".21" ry=".1" transform="translate(361.52 432.92) rotate(-84.53)"/>
  <ellipse class="st4" cx="417.65" cy="15.51" rx=".21" ry=".1" transform="translate(362.42 429.78) rotate(-84.53)"/>
  <ellipse class="st4" cx="414.1" cy="11.67" rx=".21" ry=".1" transform="translate(363.04 422.78) rotate(-84.53)"/>
  <ellipse class="st4" cx="424.81" cy="11.56" rx=".21" ry=".1" transform="translate(372.84 433.34) rotate(-84.53)"/>
  <text/>
</svg>