<?xml version="1.0" encoding="UTF-8"?>
<svg id="Layer_1" xmlns="http://www.w3.org/2000/svg" version="1.1" viewBox="0 0 797.23 214.15">
  <!-- Generator: Adobe Illustrator 30.5.1, SVG Export Plug-In . SVG Version: 2.1.4 Build 3)  -->
  <defs>
    <style>
      .st0 {
        fill: #efa74c;
      }

      .st1 {
        fill: #e8ddd2;
      }

      .st2 {
        fill: #efede4;
      }

      .st3 {
        fill: #231f20;
      }

      .st4 {
        fill: #e76d44;
      }

      .st5 {
        fill: #a35959;
      }

      .st6, .st7 {
        fill: #a15959;
      }

      .st8 {
        fill: #ec8561;
      }

      .st9 {
        fill: #efe0d1;
      }

      .st10 {
        stroke: #232525;
      }

      .st10, .st11, .st12 {
        fill: none;
        stroke-miterlimit: 10;
      }

      .st7 {
        font-family: ErasITC-Bold, 'Eras Bold ITC';
        font-size: 63.63px;
        font-weight: 700;
      }

      .st13 {
        fill: #efebe3;
      }

      .st14 {
        fill: #232525;
      }

      .st15 {
        fill: #f1d19c;
      }

      .st16 {
        fill: #5f5c55;
      }

      .st11 {
        stroke: #d5c9c1;
      }

      .st17 {
        fill: #6a6661;
      }

      .st12 {
        stroke: #ddc5b8;
      }

      .st18 {
        fill: #ecd5ae;
      }

      .st19 {
        fill: #d5c9c1;
      }

      .st20 {
        fill: #efa74d;
      }

      .st21 {
        fill: #eed5ae;
      }

      .st22 {
        fill: #e76c49;
      }
    </style>
  </defs>
  <rect class="st1" x="0" y="0" width="717.63" height="196.36" rx="28.94" ry="28.94"/>
  <path class="st6" d="M675.62,3.52c-25.07,2.96-53.92,8.3-65.92,29.98-6.52,11.78-6.36,25.85-9.02,38.99-5.32,26.24-22.65,49.47-45.28,64.57-22.62,15.09-50.18,22.37-77.58,23.01-33.51.78-66.65-7.94-100.17-7.54-57.33.69-112.67,27.96-169.77,22.93-22.39-1.97-44.03-8.87-66.3-11.92-22.27-3.05-46.55-1.72-64.82,11.08-7.88,5.52-14.73,15.3-10.86,23.98,3.9,8.75,15.66,10.42,25.43,10.82,180.27,7.29,360.89,6.14,541.04-3.43,37.14-1.97,78.15-6.02,103.39-32.69,16.25-17.17,23.01-41.61,21.36-64.93-1.65-23.32-11.06-45.6-23.65-65.48-14.52-22.93-36.44-41.91-57.87-39.38Z"/>
  <text class="st7" transform="translate(166.05 59.22) scale(.94 1)"><tspan x="0" y="0">share your</tspan><tspan x="0" y="76.36" xml:space="preserve"> thoughts</tspan></text>
  <path class="st9" d="M726.38,124.07c6.33-2.01,13.69.94,17.55,6.12,3.86,5.18,4.53,12.11,2.89,18.27-3.08,11.54-14.39,20.64-26.86,21.61-7.94.62-15.78-1.76-23.73-2.26-10.85-.69-21.56,2.1-32.14,4.5-10.58,2.4-21.63,4.42-32.25,2.2-10.62-2.22-20.74-9.71-22.44-19.94-.88-5.32.56-10.76,2.62-15.78,1.66-4.02,3.79-7.96,6.98-11.03,3.2-3.07,7.6-5.2,12.13-5.03-2.63-9.82-.34-20.81,6.34-28.71,6.68-7.89,17.67-12.39,28.25-11.19,10.57,1.2,20.29,8.2,24.02,17.69,5.81-5.43,14.8-7.54,22.6-5.32,7.8,2.22,14.09,8.7,15.81,16.27,1.73,7.58-1.18,15.95-7.31,21.05"/>
  <path class="st9" d="M739.69,124.3c.35-.71,1.34-1.05,2.08-.71l.3,10.07"/>
  <path class="st9" d="M722.03,124.3c7.92-.42,15.63-3.79,21.11-9.25,5.49-5.45,8.69-12.93,8.79-20.48.05-3.69-.62-7.36-.55-11.05.07-3.69.98-7.57,3.66-10.23,2.68-2.66,7.49-3.58,10.49-1.24,2.38,1.86,2.98,5.06,3.18,7.99.37,5.56-.13,11.13-.63,16.68-.71,7.8-1.51,15.89-5.72,22.61-3.23,5.15-8.25,9.09-13.74,12.04-5.48,2.94-11.45,4.95-17.39,6.95"/>
  <ellipse class="st19" cx="763.03" cy="70.16" rx="34.21" ry="8.35"/>
  <path class="st16" d="M701.68,165.88c-3.17-.67-6.35-1.34-9.52-2.02-.37-.08-.75-.16-1.12-.08-.65.14-1.1.75-1.24,1.37-.2.93.16,1.91.77,2.66.61.75,1.43,1.31,2.27,1.83,2.17,1.33,4.49,2.42,6.83,3.47,1.29.58,2.73,1.16,4.1.77"/>
  <path class="st16" d="M677.37,168.58c-3.17-.67-6.35-1.34-9.52-2.02-.37-.08-.75-.16-1.12-.08-.65.14-1.1.75-1.24,1.37-.2.93.16,1.91.77,2.66.61.75,1.43,1.31,2.27,1.83,2.17,1.33,4.49,2.42,6.83,3.47,1.29.58,2.73,1.16,4.1.77"/>
  <ellipse class="st14" cx="697.8" cy="136.56" rx="2.61" ry="2.56"/>
  <ellipse class="st14" cx="668.68" cy="139.25" rx="2.61" ry="2.56"/>
  <path class="st10" d="M678.02,147.04c1.58,2.15,4.49,3.33,7.21,2.94,2.72-.39,5.13-2.34,5.97-4.84"/>
  <path class="st11" d="M626.64,148.92c1.87,2.19,4.6,3.7,7.53,4.14,2.71.41,5.47-.06,8.18-.44,2.71-.38,5.53-.66,8.15.11,2.62.77,5,2.85,5.21,5.45.17,2.08-1.04,4.05-2.55,5.56-2.39,2.39-5.59,3.97-8.95,4.79-3.36.82-6.88.9-10.33.61-3.16-.27-6.33-.87-9.14-2.28-2.8-1.41-5.22-3.69-6.22-6.56"/>
  <path class="st0" d="M790.11,61.1c-14.92,2.3-29.94,4.08-45,5.34-1.75.15-3.61.32-5.03,1.31-1.42.99-2.13,3.11-.97,4.38,1.04,1.14,2.91,1.03,4.48.82,14.15-1.89,28.3-3.78,42.45-5.68,1.7-.23,3.58-.55,4.6-1.87,1.02-1.32.65-3.43-.52-4.3Z"/>
  <path class="st15" d="M790.63,61.47c-16.08,2.36-32.2,4.41-48.36,6.16-.58.06-1.18.12-1.73-.07-.91-.31-1.44-1.26-1.51-2.17-.08-.92.22-1.82.5-2.69,16.01-2.18,32.02-4.37,48.04-6.55.7-.1,1.44-.19,2.11.05.91.32,1.49,1.22,1.67,2.13s.03,1.85-.12,2.76c-.29.02-.59.04-.59.38Z"/>
  <path class="st5" d="M729.85,122.3c2.64-10.25-2.21-21.98-11.29-27.29-9.08-5.32-21.59-3.75-29.1,3.65-4.34-9.78-13.88-17.02-24.41-18.52-10.52-1.49-21.68,2.82-28.52,11.02-6.84,8.2-9.15,20.02-5.89,30.22-11.53,2.88-20.58,13.87-21.25,25.82-.14,2.45.47,5.49,2.8,6.17,1.9.55,3.86-.92,4.76-2.7.89-1.78,1.06-3.82,1.61-5.74,1.28-4.52,4.84-8.33,9.25-9.88,3.76-1.32,8.04-1.11,11.47-3.15,4.41-2.63,6.07-8.13,9.08-12.32,5.17-7.2,15.18-10.43,23.53-7.57,4.79,1.64,9.01,5.03,14.03,5.67,6.24.79,12.13-2.83,18.33-3.93,8.77-1.55,18.26,2.48,25.62,8.54Z"/>
  <path class="st5" d="M727.68,115.52c2.64,2.85,2.62,7.65-.05,10.48-1.33,1.41-3.2,2.37-4.11,4.05-.46.84-.63,1.8-1.06,2.65s-1.24,1.65-2.21,1.63c-1.14-.03-1.96-1.19-1.98-2.3-.02-1.1.54-2.13,1.11-3.09s1.18-1.94,1.28-3.04c.19-2.04-1.4-3.79-2.1-5.73-.98-2.73-.14-5.73.7-8.51"/>
  <path class="st5" d="M726.54,131.53"/>
  <path class="st5" d="M719.15,115.67c-1.28-.85-3.11-.45-4.32.49s-1.96,2.32-2.74,3.62c-.78,1.3-1.69,2.63-3.06,3.34-1.49.77-3.61.96-4.16,2.51-.36,1,.1,2.34-.75,3-.7.55-1.82.12-2.32-.61-.78-1.15-.47-2.67-.04-3.98.43-1.31.97-2.7.57-4.02-.45-1.51-2.05-2.48-3.65-2.71-1.6-.23-3.23.13-4.8.49-1.62.37-3.47.93-4.05,2.44-.42,1.1,0,2.3.25,3.45.26,1.14.27,2.54-.69,3.26-.87.66-2.19.46-3.08,1.09-1.35.96-1.23,3.44-2.87,3.79-.91.19-1.8-.52-2.13-1.36-.33-.84-.26-1.77-.24-2.67.06-2.53-.35-5.11-1.49-7.39-1.14-2.28-3.06-4.24-5.48-5.2-1.44-.57-3.08-.81-4.27-1.79-1.62-1.35-1.9-3.67-1.74-5.74.16-2.11.68-4.24,1.86-6.03,1.18-1.78,3.09-3.18,5.26-3.44,1.87-.22,3.76.41,5.34,1.4,1.58.99,2.91,2.31,4.21,3.62"/>
  <path class="st5" d="M670.24,111.76c-1.64-.82-3.95.53-3.96,2.32-.01,1.51,1.29,2.99.72,4.39-.92,2.26-5.41,1.43-6.02,3.79-.3,1.19.65,2.73-.3,3.55-.9.77-2.36-.31-2.51-1.46-.16-1.15.38-2.29.41-3.45.07-2.27-2.11-4.35-4.44-4.27-2.34.09-4.34,2.33-4.09,4.59.12,1.12.71,2.21.49,3.31-.45,2.22-3.77,2.94-4.33,5.14-.28,1.09.22,2.23.15,3.36-.07,1.12-1.36,2.32-2.27,1.62-.56-.43-.52-1.23-.65-1.91s-.82-1.42-1.43-1.06c-1.16,1.72-3.25,2.82-5.37,2.83-1.12,0-2.47-.19-3.14.68-.6.78-.2,1.86-.07,2.82.35,2.53-1.28,4.87-2.84,6.92-1.12-.4-1.24-1.91-.95-3.03.29-1.13.77-2.38.17-3.38-.7-1.16-2.54-1.21-3.68-.45-1.14.76-1.76,2.06-2.33,3.29-1.03,2.26-2.07,4.51-3.1,6.77-.75,1.64-1.58,3.37-3.14,4.34-1.56.97-4.05.72-4.77-.93-.42-.96-.13-2.05.2-3.04,1.96-5.77,5.49-11.02,10.14-15.08,4.23-3.7,9.33-6.4,13.39-10.26,2.95-2.81,5.31-6.2,6.85-9.92,1.21-2.93,1.98-6.14,4.11-8.52,2.25-2.52,5.71-3.72,9.11-4.14,7.33-.91,15.02,1.52,20.4,6.43"/>
  <path class="st4" d="M754.46,69.42c.1.01.2.02.3.03"/>
  <path class="st4" d="M755.6,66.28c-3.45.15-6.89.57-10.29,1.25-.28.06-.58.11-.83-.05-.25-.16-.35-.49-.38-.79-.05-.63.15-1.26.36-1.85.38-1.08.86-2.21,1.78-2.81.62-.4,1.36-.5,2.07-.59,1.78-.23,3.57-.46,5.35-.68.4-.05.83-.09,1.17.13.39.26.54.79.64,1.28.18.93.3,1.87.34,2.82.01.24.02.48-.05.71-.07.23-.22.44-.17.58Z"/>
  <path class="st8" d="M752.62,66.36c-1.32.25-2.65.44-3.99.55-.08,0-.17.01-.23-.04-.11-.08-.11-.25-.09-.4.08-.7.16-1.42.46-2.05.3-.63.86-1.16,1.52-1.19.67-.03,1.28.47,1.62,1.09.34.62.46,1.34.71,2.04Z"/>
  <path class="st4" d="M771.85,64.2c-3.28.16-6.55.59-9.78,1.3-.26.06-.55.11-.79-.05-.24-.16-.34-.5-.36-.82-.05-.66.14-1.31.34-1.92.36-1.12.82-2.3,1.69-2.92.59-.41,1.29-.52,1.97-.61,1.7-.24,3.39-.47,5.09-.71.38-.05.79-.1,1.12.14.38.27.52.82.61,1.33.17.96.28,1.95.32,2.93,0,.25.02.5-.05.74s-.21.46-.16.6Z"/>
  <path class="st8" d="M769.02,64.28c-1.25.26-2.52.45-3.79.57-.08,0-.16.01-.22-.04-.11-.08-.1-.26-.09-.41.07-.73.15-1.48.44-2.13s.82-1.21,1.45-1.24c.64-.03,1.22.49,1.54,1.13.32.64.44,1.4.68,2.12Z"/>
  <path class="st20" d="M791.14,55.76c-16.64,2.26-33.28,4.52-49.93,6.78-.33.04-.67.09-.99,0-.94-.24-1.23-1.35-1.36-2.26-.17-1.22-.3-2.6.53-3.55.69-.78,1.82-1.02,2.87-1.21,16.1-2.87,32.4-4.58,48.68-6.28,1.08,2.1,1.18,4.63.2,6.51Z"/>
  <path class="st21" d="M790.59,44.78c-16.29,2.7-32.63,5.14-49.01,7.31-.57.08-1.16.16-1.63.46-1.21.77-1.1,2.46-.87,3.82,15.94-2.27,31.87-4.54,47.81-6.81.9-.13,1.82-.26,2.64-.64.82-.38,1.55-1.04,1.75-1.88s-.25-1.85-.69-2.26Z"/>
  <path class="st2" d="M790.08,44.98c.43,0,.86.01,1.29.02-15.11,2.4-30.21,4.8-45.32,7.21-2.25.36-4.55.71-6.79.33,2.93-3.07,6.61-5.37,10.27-7.62,5.98-3.67,12-7.27,18.07-10.8-.81-1.42-.36-3.39,1-4.36,1.36-.97,3.47-.83,4.67.31,1.01-.67,2.37-.86,3.53-.48,1.17.38,2.12,1.31,2.49,2.43,1.47-.72,3.36-.6,4.71.32,1.35.91,2.1,2.57,1.87,4.13.65-1.39,2.91-1.39,4.08-.35,1.17,1.03,1.53,2.64,1.83,4.13.21,1.04.39,2.2-.24,3.07-.53.73-1.5,1.04-2.4,1.27-2.86.75-5.78,1.31-8.73,1.67"/>
  <path class="st2" d="M782.51,45.92c2.42.15,4.87,0,7.25-.47.72-.14,1.48-.34,1.95-.87.43-.48.53-1.14.6-1.76.16-1.41.21-2.85-.21-4.21-.42-1.36-1.36-2.63-2.72-3.19-1.37-.56-3.16-.23-3.99.94.13-.21.25-.42.38-.63-1.92,1.06-3.73,2.28-5.43,3.64"/>
  <path class="st2" d="M784.87,38.68c1.2-1.24,1.76-3.06,1.29-4.68-.47-1.62-2.04-2.94-3.81-3.04-1.15-.06-2.29.36-3.21,1.01-.93.65-1.67,1.51-2.34,2.4-.98,1.3-1.82,2.7-2.52,4.16"/>
  <path class="st2" d="M778.53,33.56c.86-.85,1-2.29.32-3.28-.83-1.2-2.6-1.55-4.03-1.1-1.43.45-2.53,1.55-3.35,2.74-.82,1.2-1.41,2.53-2.18,3.76"/>
  <path class="st22" d="M757.96,32.89c.61-.98,1.76-1.78,2.94-1.59,1,.16,1.75.99,2.17,1.87.41.88.57,1.85.91,2.77.39,1.07,1.01,2.04,1.52,3.06s.91,2.14.8,3.26c-.1,1.07-.66,2.07-1.47,2.83-.8.75-1.83,1.27-2.91,1.58-3.04.87-6.56.04-8.81-2.09-.53-.5-1.02-1.1-1.17-1.8-.26-1.19.46-2.36,1.15-3.39,1.69-2.51,3.79-4.75,4.88-6.5Z"/>
  <path class="st13" d="M766.99,42.97c.1-.08.2-.15.3-.23-1.38.16-2.52,1.44-2.46,2.76-.61-.33-1.37-.38-2.02-.13-.65.24-1.17.78-1.38,1.41-.82-.97-2.55-1.05-3.47-.17.1-.7-.56-1.41-1.31-1.41.41-.26.46-.85.23-1.26-.23-.42-.66-.69-1.09-.91-.43-.22-.9-.41-1.26-.72-.58-.5-.84-1.27-1.43-1.77-.53-.44-1.27-.61-1.97-.55-.7.05-1.37.3-2,.6-2.7,1.3-4.86,3.84-5.05,6.71-.05.81.07,1.69.6,2.32.46.54,1.16.85,1.87,1.03,2.05.54,4.24.24,6.34-.07,1.48-.22,3.02-.46,4.25-1.26.47-.31.89-.69,1.43-.87.56-.18,1.17-.11,1.76-.07,1.98.14,4-.04,5.87-.69,1.87-.65,3.57-1.78,4.73-3.31"/>
  <path class="st18" d="M749.53,41.45c.89.94,1.82,1.87,2.92,2.6,1.09.73,2.37,1.25,3.7,1.31-1.4.03-2.78-.44-3.93-1.2-1.15-.76-2.08-1.79-2.69-2.71Z"/>
  <path class="st18" d="M749.15,42.23c1.57,1.81,3.73,3.14,6.1,3.78-2.43-.51-4.66-1.87-6.1-3.78Z"/>
  <path class="st18" d="M751.62,40.92l-.15-.04c.71.53,1.51.95,2.37,1.23-.94-.13-1.83-.57-2.22-1.18Z"/>
  <path class="st18" d="M751.98,40.76c.24.25.55.43.89.51-.39-.06-.75-.25-.89-.51Z"/>
  <path class="st18" d="M754.07,48.24c.63.26,1.35.33,2.02.19.67-.14,1.29-.48,1.76-.96-.33.55-.97.9-1.63,1-.66.11-1.34,0-2.14-.23Z"/>
  <path class="st18" d="M749.62,45.43c.77.7,1.72,1.2,2.75,1.46-1.01-.15-1.95-.65-2.75-1.46Z"/>
  <path class="st18" d="M747.55,43.67c.25.26.54.48.87.65-.39-.14-.72-.42-.93-.77.02,0,.04,0,.06.11Z"/>
  <path class="st18" d="M747.86,45.73c1.27,1.11,2.57,2.23,4.11,2.97,1.54.73,3.4,1.04,5,.45-1.67.55-3.55.33-5.15-.37-1.6-.7-2.96-1.85-3.96-3.05Z"/>
  <path class="st18" d="M745.91,45.61c.96,1.5,2.39,2.72,4.07,3.46,1.67.74,3.57,1,5.39.74-1.23.38-2.59.34-3.84,0-1.25-.34-2.39-.97-3.42-1.73-.91-.67-1.76-1.49-2.2-2.46Z"/>
  <path class="st18" d="M744.79,47.99c.25.77.84,1.43,1.54,1.88.7.46,1.52.73,2.35.92-.62,0-1.22-.21-1.75-.51-.53-.3-.99-.69-1.44-1.1-.32-.3-.66-.67-.71-1.2Z"/>
  <path class="st18" d="M764.16,47.78c.27.02.55,0,.79-.12.24-.12.41-.38.35-.63.08.15.02.35-.11.47s-.31.18-.49.22c-.15.03-.31.05-.54.05Z"/>
  <path class="st18" d="M766.1,46.65c.18.03.37-.1.46-.25s.11-.34.14-.51c.03-.18.08-.36.2-.49.09-.1.21-.16.32-.24.22-.18.33-.45.35-.72s-.04-.54-.12-.81c.33.52.21,1.27-.28,1.66-.09.07-.19.14-.25.23-.09.14-.06.32-.09.49-.05.34-.37.63-.73.65Z"/>
  <path class="st18" d="M772.25,30.93c-.17.55-.15,1.14-.03,1.71.12.56.34,1.1.56,1.64-.66-1.01-.86-2.28-.53-3.34Z"/>
  <path class="st18" d="M773.24,30.94c-.26,1.29-.05,2.66.59,3.82-.48-.91-.76-1.92-.8-2.95-.02-.38,0-.78.21-.87Z"/>
  <path class="st18" d="M779,32.38c-.22,1.3.03,2.63.4,3.9-.54-1.29-.67-2.73-.4-3.9Z"/>
  <path class="st18" d="M779.95,34.37c-.19,1.33.1,2.72.82,3.88-.76-1.07-1.06-2.43-.82-3.88Z"/>
  <path class="st18" d="M786.31,36.23c-.39.36-.53.93-.48,1.45.05.52.26,1.01.47,1.5-.5-.89-.54-2,0-2.95Z"/>
  <path class="st18" d="M787.33,37.07c-.44,1.29-.22,2.77.59,3.89-.79-1.17-1.02-2.67-.59-3.89Z"/>
  <path class="st18" d="M788.86,38.58c-.16.56-.1,1.15.05,1.71.16.56.42,1.08.68,1.6-.64-.98-.88-2.2-.73-3.31Z"/>
  <path class="st18" d="M768.57,34.75c.53.96,1.7,1.4,2.79,1.7,1.09.3,2.27.57,3.05,1.36-.92-.69-2.1-.94-3.21-1.3-1.11-.36-2.25-.91-2.63-1.76Z"/>
  <path class="st18" d="M774.16,36.55c.67,1.7,2.22,3.07,4.05,3.59-1.83-.51-3.38-1.83-4.05-3.59Z"/>
  <path class="st18" d="M777.26,38.26c.19.7.7,1.28,1.31,1.71.6.43,1.3.73,1.99,1.03-.7-.22-1.4-.46-2.01-.87-.6-.4-1.11-.99-1.29-1.88Z"/>
  <path class="st18" d="M781.67,41.37c.46-.15.97.05,1.37.33s.72.64,1.14.88c.44.26.96.38,1.47.33-.68.13-1.41-.03-1.96-.43-.3-.22-.55-.5-.85-.73-.3-.23-.68-.4-1.17-.38Z"/>
  <path class="st18" d="M785.7,41.94c-.15.74.28,1.51.94,1.92s1.49.51,2.27.4c-.75.27-1.65.14-2.29-.32-.64-.47-1-1.25-.93-2Z"/>
  <ellipse class="st3" cx="758.5" cy="40.53" rx=".2" ry=".11" transform="translate(499.47 754.58) rotate(-73.12)"/>
  <ellipse class="st3" cx="759.86" cy="38.59" rx=".2" ry=".11" transform="translate(627.56 787.84) rotate(-82.89)"/>
  <ellipse class="st3" cx="757.79" cy="37.79" rx=".2" ry=".11" transform="translate(626.55 785.08) rotate(-82.89)"/>
  <ellipse class="st3" cx="759.32" cy="36.28" rx=".2" ry=".11" transform="translate(629.38 785.28) rotate(-82.89)"/>
  <ellipse class="st3" cx="761.16" cy="36.58" rx=".2" ry=".11" transform="translate(630.7 787.36) rotate(-82.89)"/>
  <ellipse class="st3" cx="760.73" cy="34.31" rx=".2" ry=".11" transform="translate(632.57 784.96) rotate(-82.89)"/>
  <ellipse class="st3" cx="763.02" cy="36.14" rx=".2" ry=".11" transform="translate(632.76 788.83) rotate(-82.89)"/>
  <ellipse class="st3" cx="762.43" cy="34.07" rx=".2" ry=".11" transform="translate(634.3 786.43) rotate(-82.89)"/>
  <ellipse class="st3" cx="762.43" cy="38.62" rx=".2" ry=".11" transform="translate(629.78 790.42) rotate(-82.89)"/>
  <ellipse class="st3" cx="761.19" cy="40.69" rx=".2" ry=".11" transform="translate(626.64 791) rotate(-82.89)"/>
  <ellipse class="st3" cx="763.53" cy="40.61" rx=".2" ry=".11" transform="translate(628.77 793.26) rotate(-82.89)"/>
  <ellipse class="st3" cx="762.63" cy="42.44" rx=".2" ry=".11" transform="translate(626.16 793.96) rotate(-82.89)"/>
  <ellipse class="st3" cx="759.49" cy="42.47" rx=".2" ry=".11" transform="translate(623.39 790.87) rotate(-82.89)"/>
  <ellipse class="st3" cx="756.75" cy="41.45" rx=".2" ry=".11" transform="translate(622 787.25) rotate(-82.89)"/>
  <ellipse class="st3" cx="754.37" cy="39.94" rx=".2" ry=".11" transform="translate(621.42 783.58) rotate(-82.89)"/>
  <ellipse class="st3" cx="756.24" cy="39.38" rx=".2" ry=".11" transform="translate(623.61 784.93) rotate(-82.89)"/>
  <ellipse class="st3" cx="754.74" cy="38.06" rx=".2" ry=".11" transform="translate(623.61 782.29) rotate(-82.89)"/>
  <ellipse class="st3" cx="756.55" cy="36.84" rx=".2" ry=".11" transform="translate(626.39 783.02) rotate(-82.89)"/>
  <ellipse class="st3" cx="756.58" cy="35.31" rx=".2" ry=".11" transform="translate(627.94 781.71) rotate(-82.89)"/>
  <ellipse class="st3" cx="758.27" cy="35.15" rx=".2" ry=".11" transform="translate(629.59 783.25) rotate(-82.89)"/>
  <ellipse class="st3" cx="758.13" cy="33.61" rx=".2" ry=".11" transform="translate(630.99 781.76) rotate(-82.89)"/>
  <ellipse class="st3" cx="759.89" cy="32.67" rx=".2" ry=".11" transform="translate(633.46 782.68) rotate(-82.89)"/>
  <ellipse class="st3" cx="760.87" cy="31.7" rx=".2" ry=".11" transform="translate(635.29 782.81) rotate(-82.89)"/>
  <ellipse class="st3" cx="761.75" cy="32.7" rx=".2" ry=".11" transform="translate(635.07 784.55) rotate(-82.89)"/>
  <ellipse class="st3" cx="764.01" cy="38.35" rx=".2" ry=".11" transform="translate(631.44 791.75) rotate(-82.89)"/>
  <ellipse class="st3" cx="760.76" cy="44.17" rx=".2" ry=".11" transform="translate(622.82 793.62) rotate(-82.89)"/>
  <ellipse class="st3" cx="764.04" cy="43.82" rx=".2" ry=".11" transform="translate(626.04 796.57) rotate(-82.89)"/>
  <ellipse class="st3" cx="764.75" cy="42.12" rx=".2" ry=".11" transform="translate(628.34 795.78) rotate(-82.89)"/>
  <ellipse class="st3" cx="765.79" cy="42.98" rx=".2" ry=".11" transform="translate(628.4 797.58) rotate(-82.89)"/>
  <ellipse class="st3" cx="758.78" cy="45.73" rx=".2" ry=".11" transform="translate(619.54 793.03) rotate(-82.89)"/>
  <ellipse class="st3" cx="757.37" cy="43.76" rx=".2" ry=".11" transform="translate(620.25 789.9) rotate(-82.89)"/>
  <path class="st9" d="M726.38,124.07c6.33-2.01,13.69.94,17.55,6.12,3.86,5.18,4.53,12.11,2.89,18.27-3.08,11.54-14.39,20.64-26.86,21.61-7.94.62-15.78-1.76-23.73-2.26-10.85-.69-21.56,2.1-32.14,4.5-10.58,2.4-21.63,4.42-32.25,2.2-10.62-2.22-20.74-9.71-22.44-19.94-.88-5.32.56-10.76,2.62-15.78,1.66-4.02,3.79-7.96,6.98-11.03,3.2-3.07,7.6-5.2,12.13-5.03-2.63-9.82-.34-20.81,6.34-28.71,6.68-7.89,17.67-12.39,28.25-11.19,10.57,1.2,20.29,8.2,24.02,17.69,5.81-5.43,14.8-7.54,22.6-5.32,7.8,2.22,14.09,8.7,15.81,16.27,1.73,7.58-1.18,15.95-7.31,21.05"/>
  <path class="st9" d="M739.69,124.3c.35-.71,1.34-1.05,2.08-.71l.3,10.07"/>
  <path class="st9" d="M722.03,124.3c7.92-.42,15.63-3.79,21.11-9.25,5.49-5.45,8.69-12.93,8.79-20.48.05-3.69-.62-7.36-.55-11.05.07-3.69.98-7.57,3.66-10.23,2.68-2.66,7.49-3.58,10.49-1.24,2.38,1.86,2.98,5.06,3.18,7.99.37,5.56-.13,11.13-.63,16.68-.71,7.8-1.51,15.89-5.72,22.61-3.23,5.15-8.25,9.09-13.74,12.04-5.48,2.94-11.45,4.95-17.39,6.95"/>
  <ellipse class="st19" cx="763.03" cy="70.16" rx="34.21" ry="8.35"/>
  <ellipse class="st14" cx="697.8" cy="136.56" rx="2.61" ry="2.56"/>
  <ellipse class="st14" cx="668.68" cy="139.25" rx="2.61" ry="2.56"/>
  <path class="st10" d="M678.02,147.04c1.58,2.15,4.49,3.33,7.21,2.94,2.72-.39,5.13-2.34,5.97-4.84"/>
  <path class="st12" d="M626.64,148.92c1.87,2.19,4.6,3.7,7.53,4.14,2.71.41,5.47-.06,8.18-.44,2.71-.38,5.53-.66,8.15.11,2.62.77,5,2.85,5.21,5.45.17,2.08-1.04,4.05-2.55,5.56-2.39,2.39-5.59,3.97-8.95,4.79-3.36.82-6.88.9-10.33.61-3.16-.27-6.33-.87-9.14-2.28-2.8-1.41-5.22-3.69-6.22-6.56"/>
  <path class="st0" d="M790.11,61.1c-14.92,2.3-29.94,4.08-45,5.34-1.75.15-3.61.32-5.03,1.31-1.42.99-2.13,3.11-.97,4.38,1.04,1.14,2.91,1.03,4.48.82,14.15-1.89,28.3-3.78,42.45-5.68,1.7-.23,3.58-.55,4.6-1.87,1.02-1.32.65-3.43-.52-4.3Z"/>
  <path class="st15" d="M790.63,61.47c-16.08,2.36-32.2,4.41-48.36,6.16-.58.06-1.18.12-1.73-.07-.91-.31-1.44-1.26-1.51-2.17-.08-.92.22-1.82.5-2.69,16.01-2.18,32.02-4.37,48.04-6.55.7-.1,1.44-.19,2.11.05.91.32,1.49,1.22,1.67,2.13s.03,1.85-.12,2.76c-.29.02-.59.04-.59.38Z"/>
  <path class="st5" d="M729.85,122.3c2.64-10.25-2.21-21.98-11.29-27.29-9.08-5.32-21.59-3.75-29.1,3.65-4.34-9.78-13.88-17.02-24.41-18.52-10.52-1.49-21.68,2.82-28.52,11.02-6.84,8.2-9.15,20.02-5.89,30.22-11.53,2.88-20.58,13.87-21.25,25.82-.14,2.45.47,5.49,2.8,6.17,1.9.55,3.86-.92,4.76-2.7.89-1.78,1.06-3.82,1.61-5.74,1.28-4.52,4.84-8.33,9.25-9.88,3.76-1.32,8.04-1.11,11.47-3.15,4.41-2.63,6.07-8.13,9.08-12.32,5.17-7.2,15.18-10.43,23.53-7.57,4.79,1.64,9.01,5.03,14.03,5.67,6.24.79,12.13-2.83,18.33-3.93,8.77-1.55,18.26,2.48,25.62,8.54Z"/>
  <path class="st5" d="M727.68,115.52c2.64,2.85,2.62,7.65-.05,10.48-1.33,1.41-3.2,2.37-4.11,4.05-.46.84-.63,1.8-1.06,2.65s-1.24,1.65-2.21,1.63c-1.14-.03-1.96-1.19-1.98-2.3-.02-1.1.54-2.13,1.11-3.09s1.18-1.94,1.28-3.04c.19-2.04-1.4-3.79-2.1-5.73-.98-2.73-.14-5.73.7-8.51"/>
  <path class="st5" d="M726.54,131.53"/>
  <path class="st5" d="M719.15,115.67c-1.28-.85-3.11-.45-4.32.49s-1.96,2.32-2.74,3.62c-.78,1.3-1.69,2.63-3.06,3.34-1.49.77-3.61.96-4.16,2.51-.36,1,.1,2.34-.75,3-.7.55-1.82.12-2.32-.61-.78-1.15-.47-2.67-.04-3.98.43-1.31.97-2.7.57-4.02-.45-1.51-2.05-2.48-3.65-2.71-1.6-.23-3.23.13-4.8.49-1.62.37-3.47.93-4.05,2.44-.42,1.1,0,2.3.25,3.45.26,1.14.27,2.54-.69,3.26-.87.66-2.19.46-3.08,1.09-1.35.96-1.23,3.44-2.87,3.79-.91.19-1.8-.52-2.13-1.36-.33-.84-.26-1.77-.24-2.67.06-2.53-.35-5.11-1.49-7.39-1.14-2.28-3.06-4.24-5.48-5.2-1.44-.57-3.08-.81-4.27-1.79-1.62-1.35-1.9-3.67-1.74-5.74.16-2.11.68-4.24,1.86-6.03,1.18-1.78,3.09-3.18,5.26-3.44,1.87-.22,3.76.41,5.34,1.4,1.58.99,2.91,2.31,4.21,3.62"/>
  <path class="st5" d="M670.24,111.76c-1.64-.82-3.95.53-3.96,2.32-.01,1.51,1.29,2.99.72,4.39-.92,2.26-5.41,1.43-6.02,3.79-.3,1.19.65,2.73-.3,3.55-.9.77-2.36-.31-2.51-1.46-.16-1.15.38-2.29.41-3.45.07-2.27-2.11-4.35-4.44-4.27-2.34.09-4.34,2.33-4.09,4.59.12,1.12.71,2.21.49,3.31-.45,2.22-3.77,2.94-4.33,5.14-.28,1.09.22,2.23.15,3.36-.07,1.12-1.36,2.32-2.27,1.62-.56-.43-.52-1.23-.65-1.91s-.82-1.42-1.43-1.06c-1.16,1.72-3.25,2.82-5.37,2.83-1.12,0-2.47-.19-3.14.68-.6.78-.2,1.86-.07,2.82.35,2.53-1.28,4.87-2.84,6.92-1.12-.4-1.24-1.91-.95-3.03.29-1.13.77-2.38.17-3.38-.7-1.16-2.54-1.21-3.68-.45-1.14.76-1.76,2.06-2.33,3.29-1.03,2.26-2.07,4.51-3.1,6.77-.75,1.64-1.58,3.37-3.14,4.34-1.56.97-4.05.72-4.77-.93-.42-.96-.13-2.05.2-3.04,1.96-5.77,5.49-11.02,10.14-15.08,4.23-3.7,9.33-6.4,13.39-10.26,2.95-2.81,5.31-6.2,6.85-9.92,1.21-2.93,1.98-6.14,4.11-8.52,2.25-2.52,5.71-3.72,9.11-4.14,7.33-.91,15.02,1.52,20.4,6.43"/>
  <path class="st4" d="M754.46,69.42c.1.01.2.02.3.03"/>
  <path class="st4" d="M755.6,66.28c-3.45.15-6.89.57-10.29,1.25-.28.06-.58.11-.83-.05-.25-.16-.35-.49-.38-.79-.05-.63.15-1.26.36-1.85.38-1.08.86-2.21,1.78-2.81.62-.4,1.36-.5,2.07-.59,1.78-.23,3.57-.46,5.35-.68.4-.05.83-.09,1.17.13.39.26.54.79.64,1.28.18.93.3,1.87.34,2.82.01.24.02.48-.05.71-.07.23-.22.44-.17.58Z"/>
  <path class="st8" d="M752.62,66.36c-1.32.25-2.65.44-3.99.55-.08,0-.17.01-.23-.04-.11-.08-.11-.25-.09-.4.08-.7.16-1.42.46-2.05.3-.63.86-1.16,1.52-1.19.67-.03,1.28.47,1.62,1.09.34.62.46,1.34.71,2.04Z"/>
  <path class="st4" d="M771.85,64.2c-3.28.16-6.55.59-9.78,1.3-.26.06-.55.11-.79-.05-.24-.16-.34-.5-.36-.82-.05-.66.14-1.31.34-1.92.36-1.12.82-2.3,1.69-2.92.59-.41,1.29-.52,1.97-.61,1.7-.24,3.39-.47,5.09-.71.38-.05.79-.1,1.12.14.38.27.52.82.61,1.33.17.96.28,1.95.32,2.93,0,.25.02.5-.05.74s-.21.46-.16.6Z"/>
  <path class="st8" d="M769.02,64.28c-1.25.26-2.52.45-3.79.57-.08,0-.16.01-.22-.04-.11-.08-.1-.26-.09-.41.07-.73.15-1.48.44-2.13s.82-1.21,1.45-1.24c.64-.03,1.22.49,1.54,1.13.32.64.44,1.4.68,2.12Z"/>
  <path class="st20" d="M791.14,55.76c-16.64,2.26-33.28,4.52-49.93,6.78-.33.04-.67.09-.99,0-.94-.24-1.23-1.35-1.36-2.26-.17-1.22-.3-2.6.53-3.55.69-.78,1.82-1.02,2.87-1.21,16.1-2.87,32.4-4.58,48.68-6.28,1.08,2.1,1.18,4.63.2,6.51Z"/>
  <path class="st21" d="M790.59,44.78c-16.29,2.7-32.63,5.14-49.01,7.31-.57.08-1.16.16-1.63.46-1.21.77-1.1,2.46-.87,3.82,15.94-2.27,31.87-4.54,47.81-6.81.9-.13,1.82-.26,2.64-.64.82-.38,1.55-1.04,1.75-1.88s-.25-1.85-.69-2.26Z"/>
  <path class="st2" d="M790.08,44.98c.43,0,.86.01,1.29.02-15.11,2.4-30.21,4.8-45.32,7.21-2.25.36-4.55.71-6.79.33,2.93-3.07,6.61-5.37,10.27-7.62,5.98-3.67,12-7.27,18.07-10.8-.81-1.42-.36-3.39,1-4.36,1.36-.97,3.47-.83,4.67.31,1.01-.67,2.37-.86,3.53-.48,1.17.38,2.12,1.31,2.49,2.43,1.47-.72,3.36-.6,4.71.32,1.35.91,2.1,2.57,1.87,4.13.65-1.39,2.91-1.39,4.08-.35,1.17,1.03,1.53,2.64,1.83,4.13.21,1.04.39,2.2-.24,3.07-.53.73-1.5,1.04-2.4,1.27-2.86.75-5.78,1.31-8.73,1.67"/>
  <path class="st22" d="M757.96,32.89c.61-.98,1.76-1.78,2.94-1.59,1,.16,1.75.99,2.17,1.87.41.88.57,1.85.91,2.77.39,1.07,1.01,2.04,1.52,3.06s.91,2.14.8,3.26c-.1,1.07-.66,2.07-1.47,2.83-.8.75-1.83,1.27-2.91,1.58-3.04.87-6.56.04-8.81-2.09-.53-.5-1.02-1.1-1.17-1.8-.26-1.19.46-2.36,1.15-3.39,1.69-2.51,3.79-4.75,4.88-6.5Z"/>
  <path class="st13" d="M766.99,42.97c.1-.08.2-.15.3-.23-1.38.16-2.52,1.44-2.46,2.76-.61-.33-1.37-.38-2.02-.13-.65.24-1.17.78-1.38,1.41-.82-.97-2.55-1.05-3.47-.17.1-.7-.56-1.41-1.31-1.41.41-.26.46-.85.23-1.26-.23-.42-.66-.69-1.09-.91-.43-.22-.9-.41-1.26-.72-.58-.5-.84-1.27-1.43-1.77-.53-.44-1.27-.61-1.97-.55-.7.05-1.37.3-2,.6-2.7,1.3-4.86,3.84-5.05,6.71-.05.81.07,1.69.6,2.32.46.54,1.16.85,1.87,1.03,2.05.54,4.24.24,6.34-.07,1.48-.22,3.02-.46,4.25-1.26.47-.31.89-.69,1.43-.87.56-.18,1.17-.11,1.76-.07,1.98.14,4-.04,5.87-.69,1.87-.65,3.57-1.78,4.73-3.31"/>
  <path class="st18" d="M749.53,41.45c.89.94,1.82,1.87,2.92,2.6,1.09.73,2.37,1.25,3.7,1.31-1.4.03-2.78-.44-3.93-1.2-1.15-.76-2.08-1.79-2.69-2.71Z"/>
  <path class="st18" d="M749.15,42.23c1.57,1.81,3.73,3.14,6.1,3.78-2.43-.51-4.66-1.87-6.1-3.78Z"/>
  <path class="st18" d="M751.62,40.92l-.15-.04c.71.53,1.51.95,2.37,1.23-.94-.13-1.83-.57-2.22-1.18Z"/>
  <path class="st18" d="M751.98,40.76c.24.25.55.43.89.51-.39-.06-.75-.25-.89-.51Z"/>
  <path class="st18" d="M754.07,48.24c.63.26,1.35.33,2.02.19.67-.14,1.29-.48,1.76-.96-.33.55-.97.9-1.63,1-.66.11-1.34,0-2.14-.23Z"/>
  <path class="st18" d="M749.62,45.43c.77.7,1.72,1.2,2.75,1.46-1.01-.15-1.95-.65-2.75-1.46Z"/>
  <path class="st18" d="M747.55,43.67c.25.26.54.48.87.65-.39-.14-.72-.42-.93-.77.02,0,.04,0,.06.11Z"/>
  <path class="st18" d="M747.86,45.73c1.27,1.11,2.57,2.23,4.11,2.97,1.54.73,3.4,1.04,5,.45-1.67.55-3.55.33-5.15-.37-1.6-.7-2.96-1.85-3.96-3.05Z"/>
  <path class="st18" d="M745.91,45.61c.96,1.5,2.39,2.72,4.07,3.46,1.67.74,3.57,1,5.39.74-1.23.38-2.59.34-3.84,0-1.25-.34-2.39-.97-3.42-1.73-.91-.67-1.76-1.49-2.2-2.46Z"/>
  <path class="st18" d="M744.79,47.99c.25.77.84,1.43,1.54,1.88.7.46,1.52.73,2.35.92-.62,0-1.22-.21-1.75-.51-.53-.3-.99-.69-1.44-1.1-.32-.3-.66-.67-.71-1.2Z"/>
  <path class="st18" d="M764.16,47.78c.27.02.55,0,.79-.12.24-.12.41-.38.35-.63.08.15.02.35-.11.47s-.31.18-.49.22c-.15.03-.31.05-.54.05Z"/>
  <path class="st18" d="M766.1,46.65c.18.03.37-.1.46-.25s.11-.34.14-.51c.03-.18.08-.36.2-.49.09-.1.21-.16.32-.24.22-.18.33-.45.35-.72s-.04-.54-.12-.81c.33.52.21,1.27-.28,1.66-.09.07-.19.14-.25.23-.09.14-.06.32-.09.49-.05.34-.37.63-.73.65Z"/>
  <ellipse class="st3" cx="758.5" cy="40.53" rx=".2" ry=".11" transform="translate(499.47 754.58) rotate(-73.12)"/>
  <ellipse class="st3" cx="761.19" cy="40.69" rx=".2" ry=".11" transform="translate(626.64 791) rotate(-82.89)"/>
  <ellipse class="st3" cx="763.53" cy="40.61" rx=".2" ry=".11" transform="translate(628.77 793.26) rotate(-82.89)"/>
  <ellipse class="st3" cx="762.63" cy="42.44" rx=".2" ry=".11" transform="translate(626.16 793.96) rotate(-82.89)"/>
  <ellipse class="st3" cx="759.49" cy="42.47" rx=".2" ry=".11" transform="translate(623.39 790.87) rotate(-82.89)"/>
  <ellipse class="st3" cx="756.75" cy="41.45" rx=".2" ry=".11" transform="translate(622 787.25) rotate(-82.89)"/>
  <ellipse class="st3" cx="760.76" cy="44.17" rx=".2" ry=".11" transform="translate(622.82 793.62) rotate(-82.89)"/>
  <ellipse class="st3" cx="764.04" cy="43.82" rx=".2" ry=".11" transform="translate(626.04 796.57) rotate(-82.89)"/>
  <ellipse class="st3" cx="764.75" cy="42.12" rx=".2" ry=".11" transform="translate(628.34 795.78) rotate(-82.89)"/>
  <ellipse class="st3" cx="765.79" cy="42.98" rx=".2" ry=".11" transform="translate(628.4 797.58) rotate(-82.89)"/>
  <ellipse class="st3" cx="758.78" cy="45.73" rx=".2" ry=".11" transform="translate(619.54 793.03) rotate(-82.89)"/>
  <ellipse class="st3" cx="757.37" cy="43.76" rx=".2" ry=".11" transform="translate(620.25 789.9) rotate(-82.89)"/>
  <ellipse class="st3" cx="753.44" cy="40.1" rx=".2" ry=".11" transform="translate(620.44 782.79) rotate(-82.89)"/>
  <ellipse class="st3" cx="765.31" cy="39.99" rx=".2" ry=".11" transform="translate(630.95 794.48) rotate(-82.89)"/>
  <ellipse class="st17" cx="682.56" cy="170.1" rx="10.82" ry="7" transform="translate(34.36 443.35) rotate(-36.85)"/>
  <ellipse class="st17" cx="706.87" cy="167.41" rx="10.82" ry="7" transform="translate(40.83 457.39) rotate(-36.85)"/>
  <path class="st4" d="M788.2,62.15c-3.28.16-6.55.59-9.78,1.3-.26.06-.55.11-.79-.05-.24-.16-.34-.5-.36-.82-.05-.66.14-1.31.34-1.92.36-1.12.82-2.3,1.69-2.92.59-.41,1.29-.52,1.97-.61,1.7-.24,3.39-.47,5.09-.71.38-.05.79-.1,1.12.14.38.27.52.82.61,1.33.17.96.28,1.95.32,2.93,0,.25.02.5-.05.74s-.21.46-.16.6Z"/>
  <path class="st8" d="M785.37,62.23c-1.25.26-2.52.45-3.79.57-.08,0-.16.01-.22-.04-.11-.08-.1-.26-.09-.41.07-.73.15-1.48.44-2.13s.82-1.21,1.45-1.24c.64-.03,1.22.49,1.54,1.13.32.64.44,1.4.68,2.12Z"/>
  <path class="st4" d="M788.2,62.15c-3.28.16-6.55.59-9.78,1.3-.26.06-.55.11-.79-.05-.24-.16-.34-.5-.36-.82-.05-.66.14-1.31.34-1.92.36-1.12.82-2.3,1.69-2.92.59-.41,1.29-.52,1.97-.61,1.7-.24,3.39-.47,5.09-.71.38-.05.79-.1,1.12.14.38.27.52.82.61,1.33.17.96.28,1.95.32,2.93,0,.25.02.5-.05.74s-.21.46-.16.6Z"/>
  <path class="st8" d="M785.37,62.23c-1.25.26-2.52.45-3.79.57-.08,0-.16.01-.22-.04-.11-.08-.1-.26-.09-.41.07-.73.15-1.48.44-2.13s.82-1.21,1.45-1.24c.64-.03,1.22.49,1.54,1.13.32.64.44,1.4.68,2.12Z"/>
  <ellipse class="st3" cx="756.15" cy="38.73" rx=".2" ry=".11" transform="translate(499.53 751.06) rotate(-73.12)"/>
  <ellipse class="st3" cx="762.21" cy="38.59" rx=".2" ry=".11" transform="translate(503.96 756.76) rotate(-73.12)"/>
  <ellipse class="st3" cx="759.77" cy="38.36" rx=".2" ry=".11" transform="translate(502.45 754.26) rotate(-73.12)"/>
  <ellipse class="st3" cx="756.86" cy="36.23" rx=".2" ry=".11" transform="translate(502.43 749.96) rotate(-73.12)"/>
  <ellipse class="st3" cx="759.97" cy="35.68" rx=".2" ry=".11" transform="translate(505.16 752.55) rotate(-73.12)"/>
  <ellipse class="st3" cx="762.74" cy="36.58" rx=".2" ry=".11" transform="translate(506.27 755.84) rotate(-73.12)"/>
  <ellipse class="st3" cx="762.09" cy="34.75" rx=".2" ry=".11" transform="translate(507.56 753.92) rotate(-73.12)"/>
  <ellipse class="st3" cx="758.9" cy="33.78" rx=".2" ry=".11" transform="translate(506.22 750.17) rotate(-73.12)"/>
  <ellipse class="st3" cx="760.76" cy="33.41" rx=".2" ry=".11" transform="translate(507.89 751.69) rotate(-73.12)"/>
</svg>