<?xml version="1.0" encoding="UTF-8"?>
<svg id="Layer_1" data-name="Layer 1" xmlns="http://www.w3.org/2000/svg" viewBox="0 0 979.57 887.85">
  <defs>
    <style>
      .cls-1 {
        fill: #ebdfd2;
      }

      .cls-2 {
        fill: #bf7474;
      }

      .cls-3 {
        fill: #a25959;
      }
    </style>
  </defs>
  <rect class="cls-2" x="21.34" y="6.69" width="911.14" height="867.7"/>
  <path class="cls-1" d="M19.44,2.97C12.42,273.98,5.97,545,.07,816.02c-.4,18.56.21,38.84,20.9,53.12,26.54,18.31,74.19,19.19,115.73,18.57,254.88-3.82,509.76-7.63,764.64-11.45,12.85-.19,26.71-.59,36.73-5.2,12.71-5.85,14.7-17.18,7.58-25.59-7.12-8.41-21.42-14.16-36.51-17.7-72.09-16.93-169,7.91-225.13-23.05-27.27-15.04-33.64-38.21-48.29-58.21-21.88-29.86-65.43-54.29-118.01-66.19-45.23-10.24-100.35-13.07-129.42-35.4-36.79-28.26-8.61-69.27-26.13-103.06-24.51-47.29-126.26-65.06-176.89-104.97-63.43-50-32.37-119.57-51.32-180.41-9.45-30.34-31.81-58.96-41.69-89.25-9.51-29.16-7.25-59.15-13.54-88.59C72.42,49.19,55.75,18.75,19.44,2.97Z"/>
  <path class="cls-3" d="M979.57,844.01c-17.73-24.22-73.94-28.52-119.3-25.71-45.36,2.82-96.22,8.27-132.6-7.58-30.42-13.26-39.37-36.79-54.71-56.91-28.71-37.66-87.08-67.41-155.46-79.23-39.65-6.85-87.55-10.04-108.45-30.63-16.15-15.92-8.87-35.84-8.13-54.28,1.33-33.3-21.7-66.69-62.31-90.39-36.86-21.5-87.03-35.16-118.14-59.49-29.69-23.22-38.04-53-45.51-81.52-28.14-107.4-56.29-214.8-84.43-322.21-2.6-9.91-5.6-20.36-16.69-28.08C62.75.26,40.64-3.14,27.84,3.65c-10.52,5.58-10.39,15.01-9.48,23.24,7.08,63.88,14.16,127.76,21.24,191.64,5.27,47.58,10.63,95.48,30.86,141.71,20.22,46.23,56.41,91.2,115.55,124.54,28.99,16.34,63.64,30.08,84.09,50.26,27.97,27.59,24.3,61.87,39.55,92.59,21.01,42.32,80.96,77.5,154,90.38,54.49,9.61,119.8,9.08,157.55,33.68,25.54,16.64,30.66,40.43,48.57,60.11,26.24,28.82,79.06,47.12,133.81,55.09,54.76,7.97,112.08,6.97,175.98-22.88Z"/>
</svg>